<<<<<<< HEAD
<<<<<<< HEAD
#File written by LIBUNFOLD3D. Compilation :Oct 26 2011,14:21:15

#begin vertices
v -1.2501279999999999 -2.500006 5.1103249999999996
v -1.2501279999999999 -2.499994 6.3601999999999999
v -2.1339229999999998 -2.499994 5.9941199999999997
v -2.500003 -2.499994 5.1103249999999996
v 2.4999910000000001 -2.499994 6.3601999999999999
v 2.4999910000000001 -2.500006 5.1103249999999996
v -2.500003 2.499994 5.1103249999999996
v -2.1339229999999998 2.499994 5.9941199999999997
v -1.2501279999999999 2.499994 6.3601999999999999
v -1.2501279999999999 2.500006 5.1103249999999996
v 2.4999910000000001 2.500006 5.1103249999999996
v 2.4999910000000001 2.499994 6.3601999999999999
v -2.1339229999999998 2.499994 -5.9941209999999998
v -2.500003 2.499994 -5.1103249999999996
v -1.2501279999999999 2.500006 -5.1103249999999996
v -1.2501279999999999 2.499994 -6.3601999999999999
v 2.4999910000000001 2.499994 -6.3601999999999999
v 2.4999910000000001 2.500006 -5.1103249999999996
v -2.500003 -2.499994 -5.1103249999999996
v -2.1339229999999998 -2.499994 -5.9941209999999998
v -1.2501279999999999 -2.499994 -6.3601999999999999
v -1.2501279999999999 -2.500006 -5.1103249999999996
v 2.4999910000000001 -2.500006 -5.1103249999999996
v 2.4999910000000001 -2.499994 -6.3601999999999999
#end vertices

#begin 40 textures vertices 
vt 0.53119482706266685 0.073669171043916876 0
vt 0.073669193024887017 0.073669156540584049 0
vt 0.72876272064055603 0.70068955186418846 0
vt 0.27123730358600012 0.70068955186418846 0
vt 0.017719030321001309 0.24154287551364415 0
vt 0.81440789953019521 0.70068955186418813 0
vt 0.073669407646250226 0.24154252966501497 0
vt 0.034106227640397543 0.034106313821354976 0
vt 0.77158531008537579 0.92451304596366068 0
vt 0.073669146961836185 0.68919073184921564 0
vt 0.81440789953019543 0.92451304596366057 0
vt 0.53119463034394332 0.24154245416997422 0
vt 0.017719007440859993 0.46536669140655729 0
vt 0.27123730358599973 0.92451304596366124 0
vt 0.073669182945949971 0.63324031892610366 0
vt 0.53119488791681702 0.63324038541468741 0
vt 0.073669426812497857 0.46536705169971959 0
vt 0.53119466127835968 0.46536699663734188 0
vt 0.57075789461651572 0.67280322803444415 0
vt 0.22841467278389083 0.70068955186418846 0
vt 0.58714533474900044 0.63324025389312799 0
vt 0.18559210046980609 0.70068955186418824 0
vt 0.58714506496901231 0.46536663376118198 0
vt 0.58714502249365685 0.24154279697356043 0
vt 0.58714524342265706 0.073669284865589005 0
vt 0.017718750000001324 0.70068955186418758 0
vt 0.017718750000000449 0.92451304596366002 0
vt 0.18559210046980545 0.92451304596366068 0
vt 0.57075782007378084 0.034106318548896279 0
vt 0.22841467278389044 0.92451304596366102 0
vt 0.017718763481516929 0.63324018460373566 0
vt 0.98228125000000044 0.92451304596366035 0
vt 0.98228125000000022 0.70068955186418802 0
vt 0.034106220239104097 0.67280315691157155 0
vt 0.77158531008537556 0.70068955186418813 0
vt 0.017718750000000449 0.073669276555640525 0
vt 0.53119484700330066 0.017718757269891597 0
vt 0.53119491003167352 0.68919079190308608 0
vt 0.72876272064055614 0.92451304596366091 0
vt 0.073669156829770363 0.017718750000000449 0
#end 40 textures vertices 

#begin 52 normals 
vn -1.9999999999999999e-006 -1 -9.9999999999999995e-007
vn -1.9999999999999999e-006 -1 9.9999999999999995e-007
vn -1.0000000000000001e-005 -1 0
vn -1.0000000000000001e-005 -1 -0
vn 0 -1 1.0000000000000001e-005
vn -9.9999999999999995e-007 -1 1.0000000000000001e-005
vn 0 -1 9.9999999999999995e-007
vn -0.99945700000000004 0 0.032948999999999999
vn -0.92388000000000003 0 0.382683
vn -0.92388000000000003 0 0.382683
vn -0.99945700000000004 0 0.032948999999999999
vn -0.382683 0 0.92388000000000003
vn -0.078755000000000006 0 0.99689399999999995
vn -0.078755000000000006 0 0.99689399999999995
vn -0.382683 0 0.92388000000000003
vn 1 0 0
vn 1 0 0
vn 1 0 0
vn 1 0 0
vn -1.0000000000000001e-005 1 -0
vn -1.0000000000000001e-005 1 0
vn -1.9999999999999999e-006 1 9.9999999999999995e-007
vn -1.9999999999999999e-006 1 -9.9999999999999995e-007
vn 0 1 9.9999999999999995e-007
vn -9.9999999999999995e-007 1 1.0000000000000001e-005
vn 0 1 1.0000000000000001e-005
vn -0.99945700000000004 0 -0.032948999999999999
vn -0.92388000000000003 0 -0.382683
vn -0.92388000000000003 0 -0.382683
vn -0.99945700000000004 0 -0.032948999999999999
vn -0.382683 0 -0.92388000000000003
vn -0.078755000000000006 0 -0.99689399999999995
vn -0.078755000000000006 0 -0.99689399999999995
vn -0.382683 0 -0.92388000000000003
vn 0 1 -1.0000000000000001e-005
vn -9.9999999999999995e-007 1 -1.0000000000000001e-005
vn 0 1 -9.9999999999999995e-007
vn 0 -1 -9.9999999999999995e-007
vn -9.9999999999999995e-007 -1 -1.0000000000000001e-005
vn 0 -1 -1.0000000000000001e-005
vn 0 0 1
vn 0 0 1
vn 0 0 -1
vn 0 0 -1
vn -6.9999999999999999e-006 -1 6.9999999999999999e-006
vn -6.9999999999999999e-006 1 6.9999999999999999e-006
vn -6.9999999999999999e-006 1 -6.9999999999999999e-006
vn -6.9999999999999999e-006 -1 -6.9999999999999999e-006
vn 1 0 0
vn 1 0 0
vn 1 0 0
vn 1 0 0
#end 52 normals 

#begin 22 faces
g polySurface11
s 1
f 22/1/1 1/2/2 4/40/3 19/37/4 
f 5/5/5 2/36/6 1/2/2 6/7/7 
s 2
f 4/3/8 3/35/9 8/9/10 7/39/11 
s 3
f 3/35/12 2/6/13 9/11/14 8/9/15 
s 4
f 11/17/16 6/7/17 23/12/18 18/18/19 
s 5
f 14/38/20 7/10/21 10/15/22 15/16/23 
f 11/17/24 10/15/22 9/31/25 12/13/26 
s 2
f 14/14/27 13/30/28 20/20/29 19/4/30 
s 6
f 13/30/31 16/28/32 21/22/33 20/20/34 
s 5
f 17/23/35 16/21/36 15/16/23 18/18/37 
s 1
f 23/12/38 22/1/1 21/25/39 24/24/40 
s 3
f 2/6/13 5/33/41 12/32/42 9/11/14 
s 5
f 10/15/22 11/17/24 18/18/37 15/16/23 
s 6
f 16/28/32 17/27/43 24/26/44 21/22/33 
s 1
f 22/1/1 23/12/38 6/7/7 1/2/2 
s 2
f 19/4/30 4/3/8 7/39/11 14/14/27 
s 1
f 3/8/45 4/40/3 1/2/2 2/36/6 
s 5
f 9/31/25 10/15/22 7/10/21 8/34/46 
f 13/19/47 14/38/20 15/16/23 16/21/36 
s 1
f 21/25/39 22/1/1 19/37/4 20/29/48 
s 4
f 5/5/49 6/7/17 11/17/16 12/13/50 
f 18/18/19 23/12/18 24/24/51 17/23/52 
#end 22 faces
#begin 1 properties
#U3D SYM 0 0 0 1 0 0 0.0001 0
#end 1 properties
=======
#File written by LIBUNFOLD3D. Compilation :Oct 26 2011,14:21:15

#begin vertices
v -1.2501279999999999 -2.500006 5.1103249999999996
v -1.2501279999999999 -2.499994 6.3601999999999999
v -2.1339229999999998 -2.499994 5.9941199999999997
v -2.500003 -2.499994 5.1103249999999996
v 2.4999910000000001 -2.499994 6.3601999999999999
v 2.4999910000000001 -2.500006 5.1103249999999996
v -2.500003 2.499994 5.1103249999999996
v -2.1339229999999998 2.499994 5.9941199999999997
v -1.2501279999999999 2.499994 6.3601999999999999
v -1.2501279999999999 2.500006 5.1103249999999996
v 2.4999910000000001 2.500006 5.1103249999999996
v 2.4999910000000001 2.499994 6.3601999999999999
v -2.1339229999999998 2.499994 -5.9941209999999998
v -2.500003 2.499994 -5.1103249999999996
v -1.2501279999999999 2.500006 -5.1103249999999996
v -1.2501279999999999 2.499994 -6.3601999999999999
v 2.4999910000000001 2.499994 -6.3601999999999999
v 2.4999910000000001 2.500006 -5.1103249999999996
v -2.500003 -2.499994 -5.1103249999999996
v -2.1339229999999998 -2.499994 -5.9941209999999998
v -1.2501279999999999 -2.499994 -6.3601999999999999
v -1.2501279999999999 -2.500006 -5.1103249999999996
v 2.4999910000000001 -2.500006 -5.1103249999999996
v 2.4999910000000001 -2.499994 -6.3601999999999999
#end vertices

#begin 40 textures vertices 
vt 0.53119482706266685 0.073669171043916876 0
vt 0.073669193024887017 0.073669156540584049 0
vt 0.72876272064055603 0.70068955186418846 0
vt 0.27123730358600012 0.70068955186418846 0
vt 0.017719030321001309 0.24154287551364415 0
vt 0.81440789953019521 0.70068955186418813 0
vt 0.073669407646250226 0.24154252966501497 0
vt 0.034106227640397543 0.034106313821354976 0
vt 0.77158531008537579 0.92451304596366068 0
vt 0.073669146961836185 0.68919073184921564 0
vt 0.81440789953019543 0.92451304596366057 0
vt 0.53119463034394332 0.24154245416997422 0
vt 0.017719007440859993 0.46536669140655729 0
vt 0.27123730358599973 0.92451304596366124 0
vt 0.073669182945949971 0.63324031892610366 0
vt 0.53119488791681702 0.63324038541468741 0
vt 0.073669426812497857 0.46536705169971959 0
vt 0.53119466127835968 0.46536699663734188 0
vt 0.57075789461651572 0.67280322803444415 0
vt 0.22841467278389083 0.70068955186418846 0
vt 0.58714533474900044 0.63324025389312799 0
vt 0.18559210046980609 0.70068955186418824 0
vt 0.58714506496901231 0.46536663376118198 0
vt 0.58714502249365685 0.24154279697356043 0
vt 0.58714524342265706 0.073669284865589005 0
vt 0.017718750000001324 0.70068955186418758 0
vt 0.017718750000000449 0.92451304596366002 0
vt 0.18559210046980545 0.92451304596366068 0
vt 0.57075782007378084 0.034106318548896279 0
vt 0.22841467278389044 0.92451304596366102 0
vt 0.017718763481516929 0.63324018460373566 0
vt 0.98228125000000044 0.92451304596366035 0
vt 0.98228125000000022 0.70068955186418802 0
vt 0.034106220239104097 0.67280315691157155 0
vt 0.77158531008537556 0.70068955186418813 0
vt 0.017718750000000449 0.073669276555640525 0
vt 0.53119484700330066 0.017718757269891597 0
vt 0.53119491003167352 0.68919079190308608 0
vt 0.72876272064055614 0.92451304596366091 0
vt 0.073669156829770363 0.017718750000000449 0
#end 40 textures vertices 

#begin 52 normals 
vn -1.9999999999999999e-006 -1 -9.9999999999999995e-007
vn -1.9999999999999999e-006 -1 9.9999999999999995e-007
vn -1.0000000000000001e-005 -1 0
vn -1.0000000000000001e-005 -1 -0
vn 0 -1 1.0000000000000001e-005
vn -9.9999999999999995e-007 -1 1.0000000000000001e-005
vn 0 -1 9.9999999999999995e-007
vn -0.99945700000000004 0 0.032948999999999999
vn -0.92388000000000003 0 0.382683
vn -0.92388000000000003 0 0.382683
vn -0.99945700000000004 0 0.032948999999999999
vn -0.382683 0 0.92388000000000003
vn -0.078755000000000006 0 0.99689399999999995
vn -0.078755000000000006 0 0.99689399999999995
vn -0.382683 0 0.92388000000000003
vn 1 0 0
vn 1 0 0
vn 1 0 0
vn 1 0 0
vn -1.0000000000000001e-005 1 -0
vn -1.0000000000000001e-005 1 0
vn -1.9999999999999999e-006 1 9.9999999999999995e-007
vn -1.9999999999999999e-006 1 -9.9999999999999995e-007
vn 0 1 9.9999999999999995e-007
vn -9.9999999999999995e-007 1 1.0000000000000001e-005
vn 0 1 1.0000000000000001e-005
vn -0.99945700000000004 0 -0.032948999999999999
vn -0.92388000000000003 0 -0.382683
vn -0.92388000000000003 0 -0.382683
vn -0.99945700000000004 0 -0.032948999999999999
vn -0.382683 0 -0.92388000000000003
vn -0.078755000000000006 0 -0.99689399999999995
vn -0.078755000000000006 0 -0.99689399999999995
vn -0.382683 0 -0.92388000000000003
vn 0 1 -1.0000000000000001e-005
vn -9.9999999999999995e-007 1 -1.0000000000000001e-005
vn 0 1 -9.9999999999999995e-007
vn 0 -1 -9.9999999999999995e-007
vn -9.9999999999999995e-007 -1 -1.0000000000000001e-005
vn 0 -1 -1.0000000000000001e-005
vn 0 0 1
vn 0 0 1
vn 0 0 -1
vn 0 0 -1
vn -6.9999999999999999e-006 -1 6.9999999999999999e-006
vn -6.9999999999999999e-006 1 6.9999999999999999e-006
vn -6.9999999999999999e-006 1 -6.9999999999999999e-006
vn -6.9999999999999999e-006 -1 -6.9999999999999999e-006
vn 1 0 0
vn 1 0 0
vn 1 0 0
vn 1 0 0
#end 52 normals 

#begin 22 faces
g polySurface11
s 1
f 22/1/1 1/2/2 4/40/3 19/37/4 
f 5/5/5 2/36/6 1/2/2 6/7/7 
s 2
f 4/3/8 3/35/9 8/9/10 7/39/11 
s 3
f 3/35/12 2/6/13 9/11/14 8/9/15 
s 4
f 11/17/16 6/7/17 23/12/18 18/18/19 
s 5
f 14/38/20 7/10/21 10/15/22 15/16/23 
f 11/17/24 10/15/22 9/31/25 12/13/26 
s 2
f 14/14/27 13/30/28 20/20/29 19/4/30 
s 6
f 13/30/31 16/28/32 21/22/33 20/20/34 
s 5
f 17/23/35 16/21/36 15/16/23 18/18/37 
s 1
f 23/12/38 22/1/1 21/25/39 24/24/40 
s 3
f 2/6/13 5/33/41 12/32/42 9/11/14 
s 5
f 10/15/22 11/17/24 18/18/37 15/16/23 
s 6
f 16/28/32 17/27/43 24/26/44 21/22/33 
s 1
f 22/1/1 23/12/38 6/7/7 1/2/2 
s 2
f 19/4/30 4/3/8 7/39/11 14/14/27 
s 1
f 3/8/45 4/40/3 1/2/2 2/36/6 
s 5
f 9/31/25 10/15/22 7/10/21 8/34/46 
f 13/19/47 14/38/20 15/16/23 16/21/36 
s 1
f 21/25/39 22/1/1 19/37/4 20/29/48 
s 4
f 5/5/49 6/7/17 11/17/16 12/13/50 
f 18/18/19 23/12/18 24/24/51 17/23/52 
#end 22 faces
#begin 1 properties
#U3D SYM 0 0 0 1 0 0 0.0001 0
#end 1 properties
>>>>>>> 9a17c25147367ba58d58d4f94d91fdec2edbdc15
=======
#File written by LIBUNFOLD3D. Compilation :Oct 26 2011,14:21:15

#begin vertices
v -1.2501279999999999 -2.500006 5.1103249999999996
v -1.2501279999999999 -2.499994 6.3601999999999999
v -2.1339229999999998 -2.499994 5.9941199999999997
v -2.500003 -2.499994 5.1103249999999996
v 2.4999910000000001 -2.499994 6.3601999999999999
v 2.4999910000000001 -2.500006 5.1103249999999996
v -2.500003 2.499994 5.1103249999999996
v -2.1339229999999998 2.499994 5.9941199999999997
v -1.2501279999999999 2.499994 6.3601999999999999
v -1.2501279999999999 2.500006 5.1103249999999996
v 2.4999910000000001 2.500006 5.1103249999999996
v 2.4999910000000001 2.499994 6.3601999999999999
v -2.1339229999999998 2.499994 -5.9941209999999998
v -2.500003 2.499994 -5.1103249999999996
v -1.2501279999999999 2.500006 -5.1103249999999996
v -1.2501279999999999 2.499994 -6.3601999999999999
v 2.4999910000000001 2.499994 -6.3601999999999999
v 2.4999910000000001 2.500006 -5.1103249999999996
v -2.500003 -2.499994 -5.1103249999999996
v -2.1339229999999998 -2.499994 -5.9941209999999998
v -1.2501279999999999 -2.499994 -6.3601999999999999
v -1.2501279999999999 -2.500006 -5.1103249999999996
v 2.4999910000000001 -2.500006 -5.1103249999999996
v 2.4999910000000001 -2.499994 -6.3601999999999999
#end vertices

#begin 40 textures vertices 
vt 0.53119482706266685 0.073669171043916876 0
vt 0.073669193024887017 0.073669156540584049 0
vt 0.72876272064055603 0.70068955186418846 0
vt 0.27123730358600012 0.70068955186418846 0
vt 0.017719030321001309 0.24154287551364415 0
vt 0.81440789953019521 0.70068955186418813 0
vt 0.073669407646250226 0.24154252966501497 0
vt 0.034106227640397543 0.034106313821354976 0
vt 0.77158531008537579 0.92451304596366068 0
vt 0.073669146961836185 0.68919073184921564 0
vt 0.81440789953019543 0.92451304596366057 0
vt 0.53119463034394332 0.24154245416997422 0
vt 0.017719007440859993 0.46536669140655729 0
vt 0.27123730358599973 0.92451304596366124 0
vt 0.073669182945949971 0.63324031892610366 0
vt 0.53119488791681702 0.63324038541468741 0
vt 0.073669426812497857 0.46536705169971959 0
vt 0.53119466127835968 0.46536699663734188 0
vt 0.57075789461651572 0.67280322803444415 0
vt 0.22841467278389083 0.70068955186418846 0
vt 0.58714533474900044 0.63324025389312799 0
vt 0.18559210046980609 0.70068955186418824 0
vt 0.58714506496901231 0.46536663376118198 0
vt 0.58714502249365685 0.24154279697356043 0
vt 0.58714524342265706 0.073669284865589005 0
vt 0.017718750000001324 0.70068955186418758 0
vt 0.017718750000000449 0.92451304596366002 0
vt 0.18559210046980545 0.92451304596366068 0
vt 0.57075782007378084 0.034106318548896279 0
vt 0.22841467278389044 0.92451304596366102 0
vt 0.017718763481516929 0.63324018460373566 0
vt 0.98228125000000044 0.92451304596366035 0
vt 0.98228125000000022 0.70068955186418802 0
vt 0.034106220239104097 0.67280315691157155 0
vt 0.77158531008537556 0.70068955186418813 0
vt 0.017718750000000449 0.073669276555640525 0
vt 0.53119484700330066 0.017718757269891597 0
vt 0.53119491003167352 0.68919079190308608 0
vt 0.72876272064055614 0.92451304596366091 0
vt 0.073669156829770363 0.017718750000000449 0
#end 40 textures vertices 

#begin 52 normals 
vn -1.9999999999999999e-006 -1 -9.9999999999999995e-007
vn -1.9999999999999999e-006 -1 9.9999999999999995e-007
vn -1.0000000000000001e-005 -1 0
vn -1.0000000000000001e-005 -1 -0
vn 0 -1 1.0000000000000001e-005
vn -9.9999999999999995e-007 -1 1.0000000000000001e-005
vn 0 -1 9.9999999999999995e-007
vn -0.99945700000000004 0 0.032948999999999999
vn -0.92388000000000003 0 0.382683
vn -0.92388000000000003 0 0.382683
vn -0.99945700000000004 0 0.032948999999999999
vn -0.382683 0 0.92388000000000003
vn -0.078755000000000006 0 0.99689399999999995
vn -0.078755000000000006 0 0.99689399999999995
vn -0.382683 0 0.92388000000000003
vn 1 0 0
vn 1 0 0
vn 1 0 0
vn 1 0 0
vn -1.0000000000000001e-005 1 -0
vn -1.0000000000000001e-005 1 0
vn -1.9999999999999999e-006 1 9.9999999999999995e-007
vn -1.9999999999999999e-006 1 -9.9999999999999995e-007
vn 0 1 9.9999999999999995e-007
vn -9.9999999999999995e-007 1 1.0000000000000001e-005
vn 0 1 1.0000000000000001e-005
vn -0.99945700000000004 0 -0.032948999999999999
vn -0.92388000000000003 0 -0.382683
vn -0.92388000000000003 0 -0.382683
vn -0.99945700000000004 0 -0.032948999999999999
vn -0.382683 0 -0.92388000000000003
vn -0.078755000000000006 0 -0.99689399999999995
vn -0.078755000000000006 0 -0.99689399999999995
vn -0.382683 0 -0.92388000000000003
vn 0 1 -1.0000000000000001e-005
vn -9.9999999999999995e-007 1 -1.0000000000000001e-005
vn 0 1 -9.9999999999999995e-007
vn 0 -1 -9.9999999999999995e-007
vn -9.9999999999999995e-007 -1 -1.0000000000000001e-005
vn 0 -1 -1.0000000000000001e-005
vn 0 0 1
vn 0 0 1
vn 0 0 -1
vn 0 0 -1
vn -6.9999999999999999e-006 -1 6.9999999999999999e-006
vn -6.9999999999999999e-006 1 6.9999999999999999e-006
vn -6.9999999999999999e-006 1 -6.9999999999999999e-006
vn -6.9999999999999999e-006 -1 -6.9999999999999999e-006
vn 1 0 0
vn 1 0 0
vn 1 0 0
vn 1 0 0
#end 52 normals 

#begin 22 faces
g polySurface11
s 1
f 22/1/1 1/2/2 4/40/3 19/37/4 
f 5/5/5 2/36/6 1/2/2 6/7/7 
s 2
f 4/3/8 3/35/9 8/9/10 7/39/11 
s 3
f 3/35/12 2/6/13 9/11/14 8/9/15 
s 4
f 11/17/16 6/7/17 23/12/18 18/18/19 
s 5
f 14/38/20 7/10/21 10/15/22 15/16/23 
f 11/17/24 10/15/22 9/31/25 12/13/26 
s 2
f 14/14/27 13/30/28 20/20/29 19/4/30 
s 6
f 13/30/31 16/28/32 21/22/33 20/20/34 
s 5
f 17/23/35 16/21/36 15/16/23 18/18/37 
s 1
f 23/12/38 22/1/1 21/25/39 24/24/40 
s 3
f 2/6/13 5/33/41 12/32/42 9/11/14 
s 5
f 10/15/22 11/17/24 18/18/37 15/16/23 
s 6
f 16/28/32 17/27/43 24/26/44 21/22/33 
s 1
f 22/1/1 23/12/38 6/7/7 1/2/2 
s 2
f 19/4/30 4/3/8 7/39/11 14/14/27 
s 1
f 3/8/45 4/40/3 1/2/2 2/36/6 
s 5
f 9/31/25 10/15/22 7/10/21 8/34/46 
f 13/19/47 14/38/20 15/16/23 16/21/36 
s 1
f 21/25/39 22/1/1 19/37/4 20/29/48 
s 4
f 5/5/49 6/7/17 11/17/16 12/13/50 
f 18/18/19 23/12/18 24/24/51 17/23/52 
#end 22 faces
#begin 1 properties
#U3D SYM 0 0 0 1 0 0 0.0001 0
#end 1 properties
>>>>>>> 9a17c25147367ba58d58d4f94d91fdec2edbdc15
