<<<<<<< HEAD
<<<<<<< HEAD
#File written by LIBUNFOLD3D. Compilation :Oct 26 2011,14:21:15

#begin vertices
v -2.499994 -1.2499910000000001 6.3601999999999999
v -2.500006 -1.2499910000000001 5.1103249999999996
v 2.500006 -1.2499910000000001 5.1103249999999996
v 2.499994 -1.2499910000000001 6.3601999999999999
v -2.500006 0.00012799999999999999 5.1103249999999996
v -2.499994 0.00012799999999999999 6.3601999999999999
v -2.499994 0.88392400000000004 5.9941199999999997
v -2.499994 1.250003 5.1103249999999996
v 2.499994 1.250003 5.1103249999999996
v 2.499994 0.88392400000000004 5.9941199999999997
v 2.499994 0.00012799999999999999 6.3601999999999999
v 2.500006 0.00012799999999999999 5.1103249999999996
v -2.500006 0.00012799999999999999 -5.1103249999999996
v -2.499994 1.250003 -5.1103249999999996
v -2.499994 0.88392400000000004 -5.9941209999999998
v -2.499994 0.00012799999999999999 -6.3601999999999999
v 2.499994 0.00012799999999999999 -6.3601999999999999
v 2.499994 0.88392400000000004 -5.9941209999999998
v 2.499994 1.250003 -5.1103249999999996
v 2.500006 0.00012799999999999999 -5.1103249999999996
v -2.500006 -1.2499910000000001 -5.1103249999999996
v -2.499994 -1.2499910000000001 -6.3601999999999999
v 2.499994 -1.2499910000000001 -6.3601999999999999
v 2.500006 -1.2499910000000001 -5.1103249999999996
#end vertices

#begin 40 textures vertices 
vt 0.16347820261871857 0.68636783820318636 0
vt 0.16344610903739779 0.090595151556840517 0
vt 0.61842857240888605 0.017718750000001095 0
vt 0.45493774142443227 0.75920865186242104 0
vt 0.090607437692860768 0.68637188990748776 0
vt 0.61842857240888627 0.090589545532460777 0
vt 0.4549342965308823 0.68635212175918214 0
vt 0.45490220294957906 0.090579435112813328 0
vt 0.52780870918328726 0.75920490627927328 0
vt 0.52780508304712581 0.68634832263569934 0
vt 0.090575322521151358 0.090598950680339102 0
vt 0.61842857240888705 0.20211358446823582 0
vt 0.61842857240888893 0.79788638398479039 0
vt 0.039092935586725906 0.73789214776744583 0
vt 0.90988330848821408 0.14635160308082648 0
vt 0.60066165556827578 0.68634446850313269 0
vt 0.60062952862684937 0.090571390932129028 0
vt 0.52777296787543615 0.090575383408516341 0
vt 0.61842857240888693 0.90941045446753754 0
vt 0.61842857240888471 0.98228124999999744 0
vt 0.039055275529587187 0.039084196474751941 0
vt 0.90988330848821553 0.85364841922616586 0
vt 0.52776875835391079 0.017718750000000449 0
vt 0.45489777357033834 0.017722867758558997 0
vt 0.16344266414381828 0.017738621453611155 0
vt 0.90988330848821319 0.98228125000000044 0
vt 0.9098833084882153 0.90941045446754087 0
vt 0.9098833084882153 0.79788638398479117 0
vt 0.57928746997824931 0.039055067257422818 0
vt 0.61842857240888827 0.85364841922616397 0
vt 0.017718750000000449 0.090602804812900298 0
vt 0.090571696384968869 0.017742367036777933 0
vt 0.90988330848821364 0.20211358446823477 0
vt 0.90988330848821453 0.090589545532460222 0
vt 0.57932513003576391 0.73786301855015102 0
vt 0.61842857240888649 0.1463516030808272 0
vt 0.09061164721442258 0.75922852331603119 0
vt 0.017750876941448553 0.68637588238388991 0
vt 0.9098833084882143 0.017718750000000449 0
vt 0.16348263199796662 0.75922440555743786 0
#end 40 textures vertices 

#begin 52 normals 
vn -1 5.0000000000000004e-006 9.9999999999999995e-007
vn -1 0 9.9999999999999995e-007
vn -1 0 9.0000000000000002e-006
vn -1 3.0000000000000001e-006 7.9999999999999996e-006
vn 1 3.0000000000000001e-006 7.9999999999999996e-006
vn 1 0 9.0000000000000002e-006
vn 1 0 9.9999999999999995e-007
vn 1 5.0000000000000004e-006 9.9999999999999995e-007
vn -1 5.0000000000000004e-006 -9.9999999999999995e-007
vn -1 9.0000000000000002e-006 0
vn -1 9.0000000000000002e-006 -0
vn 0 0.99945700000000004 0.032948999999999999
vn 0 0.92388000000000003 0.382683
vn 0 0.92388000000000003 0.382683
vn 0 0.99945700000000004 0.032948999999999999
vn 0 0.382683 0.92388000000000003
vn 0 0.16908300000000001 0.98560199999999998
vn 0 0.16908300000000001 0.98560199999999998
vn 0 0.382683 0.92388000000000003
vn 1 9.0000000000000002e-006 -0
vn 1 9.0000000000000002e-006 0
vn 1 5.0000000000000004e-006 -9.9999999999999995e-007
vn -1 0 -9.9999999999999995e-007
vn -1 3.0000000000000001e-006 -7.9999999999999996e-006
vn -1 0 -9.0000000000000002e-006
vn 0 0.16908300000000001 -0.98560199999999998
vn 0 0.382683 -0.92388000000000003
vn 0 0.382683 -0.92388000000000003
vn 0 0.16908300000000001 -0.98560199999999998
vn 0 0.92388000000000003 -0.38268200000000002
vn 0 0.99945700000000004 -0.032948999999999999
vn 0 0.99945700000000004 -0.032948999999999999
vn 0 0.92388000000000003 -0.38268200000000002
vn 1 0 -9.0000000000000002e-006
vn 1 1.9999999999999999e-006 -7.9999999999999996e-006
vn 1 0 -9.9999999999999995e-007
vn 0 -1 -0
vn 0 -1 -0
vn 0 -1 -0
vn 0 -1 -0
vn 0 0 1
vn 0 0 1
vn 0 0 -1
vn 0 0 -1
vn -1 7.9999999999999996e-006 6.0000000000000002e-006
vn 1 7.9999999999999996e-006 6.0000000000000002e-006
vn -1 9.0000000000000002e-006 -6.0000000000000002e-006
vn 1 5.0000000000000004e-006 -6.0000000000000002e-006
vn 0 -1 0
vn 0 -1 0
vn 0 -1 0
vn 0 -1 0
#end 52 normals 

#begin 22 faces
g polySurface4
s 1
f 5/5/1 2/1/2 1/40/3 6/37/4 
s 2
f 11/9/5 4/4/6 3/7/7 12/10/8 
s 1
f 13/11/9 5/5/1 8/38/10 14/31/11 
s 3
f 8/12/12 7/36/13 10/15/14 9/33/15 
s 4
f 7/36/16 6/6/17 11/34/18 10/15/19 
s 2
f 19/17/20 9/16/21 12/10/8 20/18/22 
s 1
f 21/2/23 13/11/9 16/32/24 22/25/25 
s 5
f 16/19/26 15/30/27 18/22/28 17/27/29 
s 3
f 15/30/30 14/13/31 19/28/32 18/22/33 
s 2
f 23/24/34 17/23/35 20/18/22 24/8/36 
s 6
f 2/1/37 3/7/38 4/4/39 1/40/40 
s 4
f 1/3/41 4/39/42 11/34/18 6/6/17 
s 3
f 8/12/12 9/33/15 19/28/32 14/13/31 
s 5
f 16/19/26 17/27/29 23/26/43 22/20/44 
s 2
f 3/7/7 24/8/36 20/18/22 12/10/8 
s 1
f 21/2/23 2/1/2 5/5/1 13/11/9 
f 7/14/45 8/38/10 5/5/1 6/37/4 
s 2
f 11/9/5 12/10/8 9/16/21 10/35/46 
s 1
f 15/21/47 16/32/24 13/11/9 14/31/11 
s 2
f 19/17/20 20/18/22 17/23/35 18/29/48 
s 6
f 21/2/49 24/8/50 3/7/38 2/1/37 
f 22/25/51 23/24/52 24/8/50 21/2/49 
#end 22 faces
#begin 1 properties
#U3D SYM 0 0 0 1 0 0 0.0001 0
#end 1 properties
=======
#File written by LIBUNFOLD3D. Compilation :Oct 26 2011,14:21:15

#begin vertices
v -2.499994 -1.2499910000000001 6.3601999999999999
v -2.500006 -1.2499910000000001 5.1103249999999996
v 2.500006 -1.2499910000000001 5.1103249999999996
v 2.499994 -1.2499910000000001 6.3601999999999999
v -2.500006 0.00012799999999999999 5.1103249999999996
v -2.499994 0.00012799999999999999 6.3601999999999999
v -2.499994 0.88392400000000004 5.9941199999999997
v -2.499994 1.250003 5.1103249999999996
v 2.499994 1.250003 5.1103249999999996
v 2.499994 0.88392400000000004 5.9941199999999997
v 2.499994 0.00012799999999999999 6.3601999999999999
v 2.500006 0.00012799999999999999 5.1103249999999996
v -2.500006 0.00012799999999999999 -5.1103249999999996
v -2.499994 1.250003 -5.1103249999999996
v -2.499994 0.88392400000000004 -5.9941209999999998
v -2.499994 0.00012799999999999999 -6.3601999999999999
v 2.499994 0.00012799999999999999 -6.3601999999999999
v 2.499994 0.88392400000000004 -5.9941209999999998
v 2.499994 1.250003 -5.1103249999999996
v 2.500006 0.00012799999999999999 -5.1103249999999996
v -2.500006 -1.2499910000000001 -5.1103249999999996
v -2.499994 -1.2499910000000001 -6.3601999999999999
v 2.499994 -1.2499910000000001 -6.3601999999999999
v 2.500006 -1.2499910000000001 -5.1103249999999996
#end vertices

#begin 40 textures vertices 
vt 0.16347820261871857 0.68636783820318636 0
vt 0.16344610903739779 0.090595151556840517 0
vt 0.61842857240888605 0.017718750000001095 0
vt 0.45493774142443227 0.75920865186242104 0
vt 0.090607437692860768 0.68637188990748776 0
vt 0.61842857240888627 0.090589545532460777 0
vt 0.4549342965308823 0.68635212175918214 0
vt 0.45490220294957906 0.090579435112813328 0
vt 0.52780870918328726 0.75920490627927328 0
vt 0.52780508304712581 0.68634832263569934 0
vt 0.090575322521151358 0.090598950680339102 0
vt 0.61842857240888705 0.20211358446823582 0
vt 0.61842857240888893 0.79788638398479039 0
vt 0.039092935586725906 0.73789214776744583 0
vt 0.90988330848821408 0.14635160308082648 0
vt 0.60066165556827578 0.68634446850313269 0
vt 0.60062952862684937 0.090571390932129028 0
vt 0.52777296787543615 0.090575383408516341 0
vt 0.61842857240888693 0.90941045446753754 0
vt 0.61842857240888471 0.98228124999999744 0
vt 0.039055275529587187 0.039084196474751941 0
vt 0.90988330848821553 0.85364841922616586 0
vt 0.52776875835391079 0.017718750000000449 0
vt 0.45489777357033834 0.017722867758558997 0
vt 0.16344266414381828 0.017738621453611155 0
vt 0.90988330848821319 0.98228125000000044 0
vt 0.9098833084882153 0.90941045446754087 0
vt 0.9098833084882153 0.79788638398479117 0
vt 0.57928746997824931 0.039055067257422818 0
vt 0.61842857240888827 0.85364841922616397 0
vt 0.017718750000000449 0.090602804812900298 0
vt 0.090571696384968869 0.017742367036777933 0
vt 0.90988330848821364 0.20211358446823477 0
vt 0.90988330848821453 0.090589545532460222 0
vt 0.57932513003576391 0.73786301855015102 0
vt 0.61842857240888649 0.1463516030808272 0
vt 0.09061164721442258 0.75922852331603119 0
vt 0.017750876941448553 0.68637588238388991 0
vt 0.9098833084882143 0.017718750000000449 0
vt 0.16348263199796662 0.75922440555743786 0
#end 40 textures vertices 

#begin 52 normals 
vn -1 5.0000000000000004e-006 9.9999999999999995e-007
vn -1 0 9.9999999999999995e-007
vn -1 0 9.0000000000000002e-006
vn -1 3.0000000000000001e-006 7.9999999999999996e-006
vn 1 3.0000000000000001e-006 7.9999999999999996e-006
vn 1 0 9.0000000000000002e-006
vn 1 0 9.9999999999999995e-007
vn 1 5.0000000000000004e-006 9.9999999999999995e-007
vn -1 5.0000000000000004e-006 -9.9999999999999995e-007
vn -1 9.0000000000000002e-006 0
vn -1 9.0000000000000002e-006 -0
vn 0 0.99945700000000004 0.032948999999999999
vn 0 0.92388000000000003 0.382683
vn 0 0.92388000000000003 0.382683
vn 0 0.99945700000000004 0.032948999999999999
vn 0 0.382683 0.92388000000000003
vn 0 0.16908300000000001 0.98560199999999998
vn 0 0.16908300000000001 0.98560199999999998
vn 0 0.382683 0.92388000000000003
vn 1 9.0000000000000002e-006 -0
vn 1 9.0000000000000002e-006 0
vn 1 5.0000000000000004e-006 -9.9999999999999995e-007
vn -1 0 -9.9999999999999995e-007
vn -1 3.0000000000000001e-006 -7.9999999999999996e-006
vn -1 0 -9.0000000000000002e-006
vn 0 0.16908300000000001 -0.98560199999999998
vn 0 0.382683 -0.92388000000000003
vn 0 0.382683 -0.92388000000000003
vn 0 0.16908300000000001 -0.98560199999999998
vn 0 0.92388000000000003 -0.38268200000000002
vn 0 0.99945700000000004 -0.032948999999999999
vn 0 0.99945700000000004 -0.032948999999999999
vn 0 0.92388000000000003 -0.38268200000000002
vn 1 0 -9.0000000000000002e-006
vn 1 1.9999999999999999e-006 -7.9999999999999996e-006
vn 1 0 -9.9999999999999995e-007
vn 0 -1 -0
vn 0 -1 -0
vn 0 -1 -0
vn 0 -1 -0
vn 0 0 1
vn 0 0 1
vn 0 0 -1
vn 0 0 -1
vn -1 7.9999999999999996e-006 6.0000000000000002e-006
vn 1 7.9999999999999996e-006 6.0000000000000002e-006
vn -1 9.0000000000000002e-006 -6.0000000000000002e-006
vn 1 5.0000000000000004e-006 -6.0000000000000002e-006
vn 0 -1 0
vn 0 -1 0
vn 0 -1 0
vn 0 -1 0
#end 52 normals 

#begin 22 faces
g polySurface4
s 1
f 5/5/1 2/1/2 1/40/3 6/37/4 
s 2
f 11/9/5 4/4/6 3/7/7 12/10/8 
s 1
f 13/11/9 5/5/1 8/38/10 14/31/11 
s 3
f 8/12/12 7/36/13 10/15/14 9/33/15 
s 4
f 7/36/16 6/6/17 11/34/18 10/15/19 
s 2
f 19/17/20 9/16/21 12/10/8 20/18/22 
s 1
f 21/2/23 13/11/9 16/32/24 22/25/25 
s 5
f 16/19/26 15/30/27 18/22/28 17/27/29 
s 3
f 15/30/30 14/13/31 19/28/32 18/22/33 
s 2
f 23/24/34 17/23/35 20/18/22 24/8/36 
s 6
f 2/1/37 3/7/38 4/4/39 1/40/40 
s 4
f 1/3/41 4/39/42 11/34/18 6/6/17 
s 3
f 8/12/12 9/33/15 19/28/32 14/13/31 
s 5
f 16/19/26 17/27/29 23/26/43 22/20/44 
s 2
f 3/7/7 24/8/36 20/18/22 12/10/8 
s 1
f 21/2/23 2/1/2 5/5/1 13/11/9 
f 7/14/45 8/38/10 5/5/1 6/37/4 
s 2
f 11/9/5 12/10/8 9/16/21 10/35/46 
s 1
f 15/21/47 16/32/24 13/11/9 14/31/11 
s 2
f 19/17/20 20/18/22 17/23/35 18/29/48 
s 6
f 21/2/49 24/8/50 3/7/38 2/1/37 
f 22/25/51 23/24/52 24/8/50 21/2/49 
#end 22 faces
#begin 1 properties
#U3D SYM 0 0 0 1 0 0 0.0001 0
#end 1 properties
>>>>>>> 9a17c25147367ba58d58d4f94d91fdec2edbdc15
=======
#File written by LIBUNFOLD3D. Compilation :Oct 26 2011,14:21:15

#begin vertices
v -2.499994 -1.2499910000000001 6.3601999999999999
v -2.500006 -1.2499910000000001 5.1103249999999996
v 2.500006 -1.2499910000000001 5.1103249999999996
v 2.499994 -1.2499910000000001 6.3601999999999999
v -2.500006 0.00012799999999999999 5.1103249999999996
v -2.499994 0.00012799999999999999 6.3601999999999999
v -2.499994 0.88392400000000004 5.9941199999999997
v -2.499994 1.250003 5.1103249999999996
v 2.499994 1.250003 5.1103249999999996
v 2.499994 0.88392400000000004 5.9941199999999997
v 2.499994 0.00012799999999999999 6.3601999999999999
v 2.500006 0.00012799999999999999 5.1103249999999996
v -2.500006 0.00012799999999999999 -5.1103249999999996
v -2.499994 1.250003 -5.1103249999999996
v -2.499994 0.88392400000000004 -5.9941209999999998
v -2.499994 0.00012799999999999999 -6.3601999999999999
v 2.499994 0.00012799999999999999 -6.3601999999999999
v 2.499994 0.88392400000000004 -5.9941209999999998
v 2.499994 1.250003 -5.1103249999999996
v 2.500006 0.00012799999999999999 -5.1103249999999996
v -2.500006 -1.2499910000000001 -5.1103249999999996
v -2.499994 -1.2499910000000001 -6.3601999999999999
v 2.499994 -1.2499910000000001 -6.3601999999999999
v 2.500006 -1.2499910000000001 -5.1103249999999996
#end vertices

#begin 40 textures vertices 
vt 0.16347820261871857 0.68636783820318636 0
vt 0.16344610903739779 0.090595151556840517 0
vt 0.61842857240888605 0.017718750000001095 0
vt 0.45493774142443227 0.75920865186242104 0
vt 0.090607437692860768 0.68637188990748776 0
vt 0.61842857240888627 0.090589545532460777 0
vt 0.4549342965308823 0.68635212175918214 0
vt 0.45490220294957906 0.090579435112813328 0
vt 0.52780870918328726 0.75920490627927328 0
vt 0.52780508304712581 0.68634832263569934 0
vt 0.090575322521151358 0.090598950680339102 0
vt 0.61842857240888705 0.20211358446823582 0
vt 0.61842857240888893 0.79788638398479039 0
vt 0.039092935586725906 0.73789214776744583 0
vt 0.90988330848821408 0.14635160308082648 0
vt 0.60066165556827578 0.68634446850313269 0
vt 0.60062952862684937 0.090571390932129028 0
vt 0.52777296787543615 0.090575383408516341 0
vt 0.61842857240888693 0.90941045446753754 0
vt 0.61842857240888471 0.98228124999999744 0
vt 0.039055275529587187 0.039084196474751941 0
vt 0.90988330848821553 0.85364841922616586 0
vt 0.52776875835391079 0.017718750000000449 0
vt 0.45489777357033834 0.017722867758558997 0
vt 0.16344266414381828 0.017738621453611155 0
vt 0.90988330848821319 0.98228125000000044 0
vt 0.9098833084882153 0.90941045446754087 0
vt 0.9098833084882153 0.79788638398479117 0
vt 0.57928746997824931 0.039055067257422818 0
vt 0.61842857240888827 0.85364841922616397 0
vt 0.017718750000000449 0.090602804812900298 0
vt 0.090571696384968869 0.017742367036777933 0
vt 0.90988330848821364 0.20211358446823477 0
vt 0.90988330848821453 0.090589545532460222 0
vt 0.57932513003576391 0.73786301855015102 0
vt 0.61842857240888649 0.1463516030808272 0
vt 0.09061164721442258 0.75922852331603119 0
vt 0.017750876941448553 0.68637588238388991 0
vt 0.9098833084882143 0.017718750000000449 0
vt 0.16348263199796662 0.75922440555743786 0
#end 40 textures vertices 

#begin 52 normals 
vn -1 5.0000000000000004e-006 9.9999999999999995e-007
vn -1 0 9.9999999999999995e-007
vn -1 0 9.0000000000000002e-006
vn -1 3.0000000000000001e-006 7.9999999999999996e-006
vn 1 3.0000000000000001e-006 7.9999999999999996e-006
vn 1 0 9.0000000000000002e-006
vn 1 0 9.9999999999999995e-007
vn 1 5.0000000000000004e-006 9.9999999999999995e-007
vn -1 5.0000000000000004e-006 -9.9999999999999995e-007
vn -1 9.0000000000000002e-006 0
vn -1 9.0000000000000002e-006 -0
vn 0 0.99945700000000004 0.032948999999999999
vn 0 0.92388000000000003 0.382683
vn 0 0.92388000000000003 0.382683
vn 0 0.99945700000000004 0.032948999999999999
vn 0 0.382683 0.92388000000000003
vn 0 0.16908300000000001 0.98560199999999998
vn 0 0.16908300000000001 0.98560199999999998
vn 0 0.382683 0.92388000000000003
vn 1 9.0000000000000002e-006 -0
vn 1 9.0000000000000002e-006 0
vn 1 5.0000000000000004e-006 -9.9999999999999995e-007
vn -1 0 -9.9999999999999995e-007
vn -1 3.0000000000000001e-006 -7.9999999999999996e-006
vn -1 0 -9.0000000000000002e-006
vn 0 0.16908300000000001 -0.98560199999999998
vn 0 0.382683 -0.92388000000000003
vn 0 0.382683 -0.92388000000000003
vn 0 0.16908300000000001 -0.98560199999999998
vn 0 0.92388000000000003 -0.38268200000000002
vn 0 0.99945700000000004 -0.032948999999999999
vn 0 0.99945700000000004 -0.032948999999999999
vn 0 0.92388000000000003 -0.38268200000000002
vn 1 0 -9.0000000000000002e-006
vn 1 1.9999999999999999e-006 -7.9999999999999996e-006
vn 1 0 -9.9999999999999995e-007
vn 0 -1 -0
vn 0 -1 -0
vn 0 -1 -0
vn 0 -1 -0
vn 0 0 1
vn 0 0 1
vn 0 0 -1
vn 0 0 -1
vn -1 7.9999999999999996e-006 6.0000000000000002e-006
vn 1 7.9999999999999996e-006 6.0000000000000002e-006
vn -1 9.0000000000000002e-006 -6.0000000000000002e-006
vn 1 5.0000000000000004e-006 -6.0000000000000002e-006
vn 0 -1 0
vn 0 -1 0
vn 0 -1 0
vn 0 -1 0
#end 52 normals 

#begin 22 faces
g polySurface4
s 1
f 5/5/1 2/1/2 1/40/3 6/37/4 
s 2
f 11/9/5 4/4/6 3/7/7 12/10/8 
s 1
f 13/11/9 5/5/1 8/38/10 14/31/11 
s 3
f 8/12/12 7/36/13 10/15/14 9/33/15 
s 4
f 7/36/16 6/6/17 11/34/18 10/15/19 
s 2
f 19/17/20 9/16/21 12/10/8 20/18/22 
s 1
f 21/2/23 13/11/9 16/32/24 22/25/25 
s 5
f 16/19/26 15/30/27 18/22/28 17/27/29 
s 3
f 15/30/30 14/13/31 19/28/32 18/22/33 
s 2
f 23/24/34 17/23/35 20/18/22 24/8/36 
s 6
f 2/1/37 3/7/38 4/4/39 1/40/40 
s 4
f 1/3/41 4/39/42 11/34/18 6/6/17 
s 3
f 8/12/12 9/33/15 19/28/32 14/13/31 
s 5
f 16/19/26 17/27/29 23/26/43 22/20/44 
s 2
f 3/7/7 24/8/36 20/18/22 12/10/8 
s 1
f 21/2/23 2/1/2 5/5/1 13/11/9 
f 7/14/45 8/38/10 5/5/1 6/37/4 
s 2
f 11/9/5 12/10/8 9/16/21 10/35/46 
s 1
f 15/21/47 16/32/24 13/11/9 14/31/11 
s 2
f 19/17/20 20/18/22 17/23/35 18/29/48 
s 6
f 21/2/49 24/8/50 3/7/38 2/1/37 
f 22/25/51 23/24/52 24/8/50 21/2/49 
#end 22 faces
#begin 1 properties
#U3D SYM 0 0 0 1 0 0 0.0001 0
#end 1 properties
>>>>>>> 9a17c25147367ba58d58d4f94d91fdec2edbdc15
