# This file uses centimeters as units for non-parametric coordinates.

g default
v -1.248807 -2.491718 5.096680
v -1.248807 -2.491705 6.346556
v -2.132603 -2.491705 5.980474
v -2.498682 -2.491705 5.096680
v 2.501324 -2.491705 5.096680
v 2.501311 -2.491705 6.346556
v -2.132603 2.142208 5.096680
v -2.498682 1.258413 5.096680
v -2.132603 1.258413 5.980474
v -1.248807 1.258413 6.346556
v -1.248807 2.142208 5.980474
v -1.248807 2.508288 5.096680
v 2.501311 2.508288 5.096680
v 2.501311 2.142208 5.980474
v 2.501311 1.258413 6.346556
v 2.501324 1.258413 5.096680
v -2.132603 1.258413 -6.007767
v -2.498682 1.258413 -5.123970
v -2.132603 2.142208 -5.123970
v -1.248807 2.508288 -5.123970
v -1.248807 2.142208 -6.007767
v -1.248807 1.258413 -6.373844
v 2.501311 1.258413 -6.373844
v 2.501311 2.142208 -6.007767
v 2.501311 2.508288 -5.123970
v 2.501324 1.258413 -5.123970
v -2.498682 -2.491705 -5.123970
v -2.132603 -2.491705 -6.007767
v -1.248807 -2.491705 -6.373844
v -1.248807 -2.491718 -5.123970
v 2.501311 -2.491705 -6.373844
v 2.501324 -2.491705 -5.123970
v -1.970171 1.979777 5.818043
v -1.970171 1.979777 -5.845333
vt 0.525599 0.502137
vt 0.073059 0.502137
vt 0.073059 0.446796
vt 0.525599 0.446796
vt 0.958232 0.169684
vt 0.964085 0.211797
vt 0.801480 0.231439
vt 0.792936 0.190324
vt 0.969548 0.254786
vt 0.807079 0.272114
vt 0.017719 0.834225
vt 0.017719 0.668181
vt 0.073060 0.668181
vt 0.073059 0.834225
vt 0.725108 0.184440
vt 0.725037 0.226816
vt 0.272553 0.226207
vt 0.272592 0.183834
vt 0.724962 0.269193
vt 0.272519 0.268580
vt 0.766176 0.271937
vt 0.768740 0.435760
vt 0.725326 0.435682
vt 0.812372 0.434956
vt 0.525599 0.889565
vt 0.073059 0.889566
vt 0.525599 0.834225
vt 0.203552 0.189810
vt 0.195517 0.230567
vt 0.030909 0.213895
vt 0.036200 0.171161
vt 0.190228 0.271082
vt 0.026269 0.257125
vt 0.230979 0.271219
vt 0.228638 0.435521
vt 0.184908 0.435430
vt 0.271622 0.435192
vt 0.580939 0.668181
vt 0.580939 0.834225
vt 0.525598 0.668181
vt 0.982281 0.424073
vt 0.017719 0.424229
vt 0.272782 0.017719
vt 0.725346 0.018320
vt 0.033928 0.463005
vt 0.017719 0.502137
vt 0.736809 0.226685
vt 0.768431 0.238181
vt 0.752622 0.208214
vt 0.033928 0.873357
vt 0.228685 0.237352
vt 0.244148 0.207275
vt 0.260389 0.225901
vt 0.564730 0.873357
vt 0.580939 0.502137
vt 0.564730 0.463005
vn 0.000000 -1.000000 -0.000001
vn 0.000000 -1.000000 0.000001
vn -0.000010 -1.000000 0.000000
vn -0.000010 -1.000000 0.000000
vn -0.999457 0.000000 0.032949
vn -0.923880 0.000000 0.382683
vn -0.925016 0.051229 0.376458
vn -0.996565 0.076866 0.030809
vn -0.382683 0.000000 0.923880
vn -0.078755 0.000000 0.996894
vn -0.074087 0.074087 0.994496
vn -0.376458 0.051229 0.925016
vn 1.000000 0.000001 0.000009
vn 1.000000 0.000000 0.000010
vn 1.000000 0.000000 0.000001
vn 1.000000 0.000002 0.000001
vn -0.996565 0.076866 0.030809
vn -0.924638 0.380281 0.020778
vn -0.924638 0.380281 -0.020778
vn -0.996565 0.076866 -0.030809
vn -0.380282 0.924637 0.020778
vn -0.076866 0.996565 0.030809
vn -0.076866 0.996565 -0.030809
vn -0.380282 0.924637 -0.020778
vn -0.076866 0.996565 0.030809
vn -0.051229 0.925016 0.376458
vn 0.000000 0.923879 0.382684
vn 0.000000 0.999457 0.032949
vn -0.051229 0.376458 0.925016
vn -0.074087 0.074087 0.994496
vn 0.000000 0.078755 0.996894
vn 0.000000 0.382684 0.923879
vn 1.000000 0.000009 0.000000
vn 1.000000 0.000009 0.000000
vn 1.000000 0.000002 0.000001
vn 1.000000 0.000002 -0.000001
vn -0.996565 0.076866 -0.030809
vn -0.925017 0.051229 -0.376457
vn -0.923880 0.000000 -0.382683
vn -0.999457 0.000000 -0.032949
vn -0.376457 0.051229 -0.925017
vn -0.074086 0.074086 -0.994496
vn -0.078755 0.000000 -0.996894
vn -0.382683 0.000000 -0.923880
vn -0.074086 0.074086 -0.994496
vn -0.051229 0.376457 -0.925017
vn 0.000000 0.382683 -0.923880
vn 0.000000 0.078755 -0.996894
vn -0.051229 0.925016 -0.376458
vn -0.076866 0.996565 -0.030809
vn 0.000000 0.999457 -0.032949
vn 0.000000 0.923879 -0.382684
vn 1.000000 0.000000 -0.000010
vn 1.000000 0.000001 -0.000009
vn 1.000000 0.000002 -0.000001
vn 1.000000 0.000000 -0.000001
vn 0.000000 -1.000000 -0.000001
vn 0.000003 -1.000000 -0.000001
vn 0.000003 -1.000000 0.000001
vn 0.000000 -1.000000 0.000001
vn -0.078755 0.000000 0.996894
vn 0.000000 0.000000 1.000000
vn 0.000000 0.078755 0.996894
vn -0.074087 0.074087 0.994496
vn -0.076866 0.996565 0.030809
vn 0.000000 0.999457 0.032949
vn 0.000000 0.999457 -0.032949
vn -0.076866 0.996565 -0.030809
vn -0.074086 0.074086 -0.994496
vn 0.000000 0.078755 -0.996894
vn 0.000000 0.000000 -1.000000
vn -0.078755 0.000000 -0.996894
vn 1.000000 0.000000 0.000001
vn 1.000000 0.000000 -0.000001
vn 1.000000 0.000002 -0.000001
vn 1.000000 0.000002 0.000001
vn -0.999457 0.000000 -0.032949
vn -0.999457 0.000000 0.032949
vn -0.996565 0.076866 0.030809
vn -0.996565 0.076866 -0.030809
vn -0.000007 -1.000000 0.000008
vn -0.000010 -1.000000 0.000000
vn 0.000000 -1.000000 0.000001
vn 0.000000 -1.000000 0.000006
vn -0.051229 0.925016 0.376458
vn -0.076866 0.996565 0.030809
vn -0.380282 0.924637 0.020778
vn -0.325269 0.887919 0.325270
vn -0.924638 0.380281 0.020778
vn -0.996565 0.076866 0.030809
vn -0.925016 0.051229 0.376458
vn -0.887919 0.325269 0.325270
vn -0.376458 0.051229 0.925016
vn -0.074087 0.074087 0.994496
vn -0.051229 0.376458 0.925016
vn -0.325269 0.325269 0.887919
vn 1.000000 0.000001 0.000009
vn 1.000000 0.000002 0.000001
vn 1.000000 0.000009 0.000000
vn 1.000000 0.000008 0.000007
vn -0.051229 0.376457 -0.925017
vn -0.074086 0.074086 -0.994496
vn -0.376457 0.051229 -0.925017
vn -0.325270 0.325269 -0.887919
vn -0.925017 0.051229 -0.376457
vn -0.996565 0.076866 -0.030809
vn -0.924638 0.380281 -0.020778
vn -0.887919 0.325269 -0.325269
vn -0.380282 0.924637 -0.020778
vn -0.076866 0.996565 -0.030809
vn -0.051229 0.925016 -0.376458
vn -0.325269 0.887919 -0.325269
vn 1.000000 0.000009 0.000000
vn 1.000000 0.000002 -0.000001
vn 1.000000 0.000001 -0.000009
vn 1.000000 0.000008 -0.000007
vn 0.000000 -1.000000 -0.000006
vn 0.000000 -1.000000 -0.000001
vn -0.000010 -1.000000 0.000000
vn -0.000007 -1.000000 -0.000008
vn 0.000000 -1.000000 -0.000001
vn 0.000000 -1.000000 -0.000006
vn 0.000002 -1.000000 -0.000005
vn 0.000003 -1.000000 -0.000001
vn 0.000000 -1.000000 0.000001
vn 0.000003 -1.000000 0.000001
vn 0.000002 -1.000000 0.000005
vn 0.000000 -1.000000 0.000006
s off
g _polySurface10
f 30/1/1 1/2/2 4/3/3 27/4/4
f 4/5/5 3/6/6 9/7/7 8/8/8
f 3/6/9 2/9/10 10/10/11 9/7/12
f 15/11/13 6/12/14 5/13/15 16/14/16
f 8/15/17 7/16/18 19/17/19 18/18/20
f 7/16/21 12/19/22 20/20/23 19/17/24
f 12/19/25 11/21/26 14/22/27 13/23/28
f 11/21/29 10/10/30 15/24/31 14/22/32
f 25/25/33 13/26/34 16/14/35 26/27/36
f 18/28/37 17/29/38 28/30/39 27/31/40
f 17/29/41 22/32/42 29/33/43 28/30/44
f 22/32/45 21/34/46 24/35/47 23/36/48
f 21/34/49 20/20/50 25/37/51 24/35/52
f 31/38/53 23/39/54 26/27/55 32/40/56
f 30/1/57 32/40/58 5/13/59 1/2/60
f 2/9/61 6/41/62 15/24/63 10/10/64
f 12/19/65 13/23/66 25/37/67 20/20/68
f 22/32/69 23/36/70 31/42/71 29/33/72
f 5/13/73 32/40/74 26/27/75 16/14/76
f 27/43/77 4/44/78 8/15/79 18/18/80
f 3/45/81 4/3/82 1/2/83 2/46/84
f 11/21/85 12/19/86 7/47/87 33/48/88
f 7/49/89 8/8/90 9/7/91 33/48/92
f 9/7/93 10/10/94 11/21/95 33/48/96
f 15/11/97 16/14/98 13/26/99 14/50/100
f 21/34/101 22/32/102 17/29/103 34/51/104
f 17/29/105 18/28/106 19/52/107 34/51/108
f 19/53/109 20/20/110 21/34/111 34/51/112
f 25/25/113 26/27/114 23/39/115 24/54/116
f 29/55/117 30/1/118 27/4/119 28/56/120
f 30/1/121 29/55/122 31/38/123 32/40/124
f 1/2/125 5/13/126 6/12/127 2/46/128
