#File written by LIBUNFOLD3D. Compilation :Oct 26 2011,14:21:15

#begin vertices
v 2.316951 -2.4999899999999999 6.3601999999999999
v 2.316951 -2.500003 5.1103249999999996
v -2.3169629999999999 2.500003 5.1103249999999996
v -1.433168 1.250129 6.3601999999999999
v -2.0583390000000001 2.1339229999999998 5.8316879999999998
v 2.316951 2.500003 5.1103249999999996
v 2.316951 2.1339229999999998 5.9941199999999997
v 2.316951 1.2501279999999999 6.3601999999999999
v 2.3169629999999999 1.2501279999999999 5.1103249999999996
v -1.4331700000000001 1.250129 5.1103249999999996
v 2.316951 -2.4999899999999999 -6.3601999999999999
v 2.316951 -2.500003 -5.1103249999999996
v -2.3169629999999999 2.500003 -5.1103249999999996
v -1.433168 1.250129 -6.3601999999999999
v -2.0583390000000001 2.1339229999999998 -5.8316879999999998
v 2.316951 2.500003 -5.1103249999999996
v 2.316951 2.1339229999999998 -5.9941199999999997
v 2.316951 1.2501279999999999 -6.3601999999999999
v 2.3169629999999999 1.2501279999999999 -5.1103249999999996
v -1.4331700000000001 1.250129 -5.1103249999999996
#end vertices

#begin 34 textures vertices 
vt 0.2712221920601931 0.75496209726622443 0
vt 0.27122219447825102 0.44900777280531656 0
vt 0.21526809254644938 0.51753724395082779 0
vt 0.21526809001116709 0.01771933196383111 0
vt 0.21526808995774008 0.18560371627253278 0
vt 0.27122219456175456 0.18560371628922206 0
vt 0.23500789458730581 0.43742975551627272 0
vt 0.2283967854691378 0.24153441130907363 0
vt 0.27122219454324176 0.24155782089048522 0
vt 0.27122219653658763 0.51753718455163422 0
vt 0.72877780539080872 0.44900777303111827 0
vt 0.72877780329709085 0.51753718528574189 0
vt 0.81150714424968573 0.4101371119583232 0
vt 0.76499210528919259 0.43742975575904319 0
vt 0.76834332831854446 0.22516923934224062 0
vt 0.72877780545909487 0.24155782108068599 0
vt 0.784731910080537 0.18560371649248814 0
vt 0.78473191013481702 0.017719332176982763 0
vt 0.72877780547652837 0.18560371647326804 0
vt 0.72877780553270077 0.017718750176486515 0
vt 0.7287778083581965 0.75496209491189448 0
vt 0.27122219461327512 0.017718750000000449 0
vt 0.98228125000000044 0.24519297637928769 0
vt 0.78473191346806093 0.75496168122515217 0
vt 0.78473190730011777 0.51753724449211536 0
vt 0.81442217409981932 0.2422779920680613 0
vt 0.7716032145332139 0.24153441153199867 0
vt 0.76107161263324552 0.46907356798948135 0
vt 0.23892838722981166 0.46907356750521656 0
vt 0.18557782590205441 0.24227799181354645 0
vt 0.23165667169431642 0.22516923913060896 0
vt 0.18849285564434703 0.41013711169293421 0
vt 0.21526808693355071 0.75496168352604631 0
vt 0.017718750000000449 0.24519297601693241 0
#end 34 textures vertices 

#begin 50 normals 
vn -0.81649499999999997 -0.57735300000000001 -6.0000000000000002e-006
vn -0.73265599999999997 -0.68059899999999995 -9.9999999999999995e-007
vn -0.72090399999999999 -0.69303499999999996 -1.0000000000000001e-005
vn -0.81644099999999997 -0.57742899999999997 -0.000117
vn -0.000475 0.99965300000000001 0.026339999999999999
vn -0.0074999999999999997 0.90934099999999995 0.41598499999999999
vn -0.0074999999999999997 0.90934000000000004 0.41598499999999999
vn -0.00058299999999999997 0.99947699999999995 0.032339
vn -0.017884000000000001 0.44645299999999999 0.89462799999999998
vn -0.011121000000000001 0.27762599999999998 0.96062499999999995
vn -0.0066629999999999997 0.16633300000000001 0.98604700000000001
vn -0.017884000000000001 0.44645299999999999 0.89462799999999998
vn -0 0 1
vn 1 6.9999999999999999e-006 6.9999999999999999e-006
vn 1 1.0000000000000001e-005 9.9999999999999995e-007
vn 1 1.0000000000000001e-005 0
vn 1 6.9999999999999999e-006 6.9999999999999999e-006
vn -0.70710799999999996 -0.70710600000000001 0
vn -0.70710700000000004 -0.70710600000000001 3.9999999999999998e-006
vn 1 -1.9999999999999999e-006 5.0000000000000004e-006
vn 1 -1.9999999999999999e-006 5.0000000000000004e-006
vn 1 -1.9999999999999999e-006 5.0000000000000004e-006
vn 1 -1.9999999999999999e-006 5.0000000000000004e-006
vn -0.81649499999999997 -0.57735300000000001 6.0000000000000002e-006
vn -0.81644099999999997 -0.57742899999999997 0.000117
vn -0.72090399999999999 -0.69303499999999996 1.0000000000000001e-005
vn -0.73265599999999997 -0.68059899999999995 9.9999999999999995e-007
vn -0.000475 0.99965300000000001 -0.026339999999999999
vn -0.00058299999999999997 0.99947699999999995 -0.032339
vn -0.0074999999999999997 0.90934000000000004 -0.41598499999999999
vn -0.0074999999999999997 0.90934099999999995 -0.41598499999999999
vn -0.017884000000000001 0.44645299999999999 -0.89462799999999998
vn -0.017884000000000001 0.44645299999999999 -0.89462799999999998
vn -0.0066629999999999997 0.16633300000000001 -0.98604700000000001
vn -0.011121000000000001 0.27762599999999998 -0.96062499999999995
vn -0 0 -1
vn 1 6.9999999999999999e-006 -6.9999999999999999e-006
vn 1 6.9999999999999999e-006 -6.9999999999999999e-006
vn 1 1.0000000000000001e-005 -0
vn 1 1.0000000000000001e-005 -9.9999999999999995e-007
vn -0.70710700000000004 -0.70710600000000001 -3.9999999999999998e-006
vn -0.70710799999999996 -0.70710600000000001 -0
vn 1 -1.9999999999999999e-006 -5.0000000000000004e-006
vn 1 -1.9999999999999999e-006 -5.0000000000000004e-006
vn 1 -1.9999999999999999e-006 -5.0000000000000004e-006
vn 1 -1.9999999999999999e-006 -5.0000000000000004e-006
vn 1 -3.0000000000000001e-006 0
vn 1 -3.0000000000000001e-006 0
vn 1 -3.0000000000000001e-006 0
vn 1 -3.0000000000000001e-006 0
#end 50 normals 

#begin 19 faces
g polySurface25 Block_Cube_All_Smooth1
s 1
f 3/2/1 10/10/2 4/3/3 5/29/4 
s 2
f 3/2/5 5/7/6 7/8/7 6/9/8 
s 3
f 5/7/9 4/32/10 8/30/11 7/8/12 
f 1/34/13 8/30/11 4/32/10 
s 4
f 8/5/14 9/6/15 6/9/16 7/31/17 
s 1
f 4/3/3 10/10/2 2/1/18 1/33/19 
s off
f 1/4/20 2/22/21 9/6/22 8/5/23 
s 1
f 13/11/24 15/28/25 14/25/26 20/12/27 
s 2
f 13/11/28 16/16/29 17/27/30 15/14/31 
s 6
f 15/14/32 17/27/33 18/26/34 14/13/35 
f 11/23/36 14/13/35 18/26/34 
s 4
f 18/17/37 17/15/38 16/16/39 19/19/40 
s 1
f 14/25/26 11/24/41 12/21/42 20/12/27 
s off
f 11/18/43 18/17/44 19/19/45 12/20/46 
s 1
f 10/10/2 20/12/27 12/21/42 2/1/18 
f 3/2/1 13/11/24 20/12/27 10/10/2 
s 2
f 6/9/8 16/16/29 13/11/28 3/2/5 
s 4
f 9/6/15 19/19/40 16/16/39 6/9/16 
s off
f 2/22/47 12/20/48 19/19/49 9/6/50 
#end 19 faces
#begin 5 properties
#U3D EDG SEL 6 7
#U3D EDG SEL 7 8
#U3D EDG SEL 30 4
#U3D EDG SEL 8 30
#U3D SYM 0 0 0 1 0 0 0.0001 0
#end 5 properties
