#File written by LIBUNFOLD3D. Compilation :Oct 26 2011,14:21:15

#begin vertices
v -2.5 -2.5 6.3601999999999999
v 2.5 -2.5 6.3601999999999999
v -2.5 2.5 6.3601999999999999
v 2.5 2.5 6.3601999999999999
v -2.5 2.5 -6.3601999999999999
v 2.5 2.5 -6.3601999999999999
v -2.5 -2.5 -6.3601999999999999
v 2.5 -2.5 -6.3601999999999999
#end vertices

#begin 14 textures vertices 
vt 0.16857370649339753 0.028432117196602186 0
vt 0.73438201365872346 0.20632151905510909 0
vt 0.5457792446036146 0.14702505176894043 0
vt 0.35717647554850607 0.087728584482771252 0
vt 0.39492428811021757 0.62684558446666006 0
vt 0.7128333589342627 0.93404128809410725 0
vt 0.58352705716532627 0.68614205175282894 0
vt 0.77212982622043369 0.7454385190389996 0
vt 0.017718750000000449 0.50825264989432206 0
vt 0.92298478271383266 0.26561798634127753 0
vt 0.52423058987915505 0.87474482080793647 0
vt 0.20632151905510901 0.56754911718049106 0
vt 0.79367848094489146 0.017718750000000449 0
vt 0.98228125000000033 0.077015217286168419 0
#end 14 textures vertices 

#begin 24 normals 
vn 0 0 1
vn 0 0 1
vn 0 0 1
vn 0 0 1
vn 0 1 0
vn 0 1 0
vn 0 1 0
vn 0 1 0
vn 0 0 -1
vn 0 0 -1
vn 0 0 -1
vn 0 0 -1
vn 0 -1 0
vn 0 -1 0
vn 0 -1 0
vn 0 -1 0
vn 1 0 0
vn 1 0 0
vn 1 0 0
vn 1 0 0
vn -1 0 0
vn -1 0 0
vn -1 0 0
vn -1 0 0
#end 24 normals 

#begin 6 faces
g polySurface12
s off
f 1/10/1 2/2/2 4/13/3 3/14/4 
f 3/4/5 4/3/6 6/5/7 5/12/8 
f 5/6/9 6/11/10 8/7/11 7/8/12 
f 7/8/13 8/7/14 2/2/15 1/10/16 
f 2/2/17 8/7/18 6/5/19 4/3/20 
f 7/9/21 1/1/22 3/4/23 5/12/24 
#end 6 faces
#begin 1 properties
#U3D SYM 0 0 0 1 0 0 0.0001 0
#end 1 properties
