#File written by LIBUNFOLD3D. Compilation :Oct 26 2011,14:21:15

#begin vertices
v 1.250059 -2.499994 5.1103249999999996
v 1.0670299999999999 -2.499994 5.9941199999999997
v 0.62506300000000004 -2.499994 6.3601999999999999
v 0.62506300000000004 -2.500006 5.1103249999999996
v 1.2501260000000001 2.500006 5.1103249999999996
v 1.2501260000000001 2.499994 6.3601999999999999
v 2.1339199999999998 2.499994 5.9941199999999997
v 2.5 2.499994 5.1103249999999996
v 2.1339199999999998 2.499994 -5.9941209999999998
v 1.2501260000000001 2.499994 -6.3601999999999999
v 1.2501260000000001 2.500006 -5.1103249999999996
v 2.5 2.499994 -5.1103249999999996
v 0.62506300000000004 -2.500006 -5.1103249999999996
v 0.62506300000000004 -2.499994 -6.3601999999999999
v 1.0670299999999999 -2.499994 -5.9941209999999998
v 1.250059 -2.499994 -5.1103249999999996
v 0.62506300000000004 0 6.3601999999999999
v 1.067032 0 5.9941199999999997
v 1.250059 0 5.1103249999999996
v 1.250059 0 -5.1103249999999996
v 1.067032 0 -5.9941209999999998
v 0.62506300000000004 0 -6.3601999999999999
v 0.80563700000000005 1.249997 -6.3601999999999999
v 1.375192 1.249997 -5.9941209999999998
v 1.61111 1.249997 -5.1103249999999996
v 1.61111 1.249997 5.1103249999999996
v 1.375192 1.249997 5.9941199999999997
v 0.80563700000000005 1.249997 6.3601999999999999
v -0 -2.500006 5.1103249999999996
v -0 -2.500006 -5.1103249999999996
v -0 -2.499994 -6.3601999999999999
v -0 0 -6.3601999999999999
v -0 1.249997 -6.3601999999999999
v -0 2.499994 -6.3601999999999999
v -0 2.500006 -5.1103249999999996
v -0 2.500006 5.1103249999999996
v -0 2.499994 6.3601999999999999
v -0 1.249997 6.3601999999999999
v -0 0 6.3601999999999999
v -0 -2.499994 6.3601999999999999
v -0 1.249997 5.1103249999999996
v -0 1.249997 -5.1103249999999996
v -0 0 5.1103249999999996
v -0 0 -5.1103249999999996
#end vertices

#begin 64 textures vertices 
vt 0.10816790837551805 0.56259950174305073 0
vt 0.79086393022587942 0.093697708195102952 0
vt 0.71489662096731943 0.093697285285867446 0
vt 0.71489668431912301 0.05570599446284856 0
vt 0.80558881784640357 0.57309667784211915 0
vt 0.1942834781965988 0.57134919428801223 0
vt 0.093686240722579195 0.055705967827135182 0
vt 0.094837385505563324 0.71449566892292937 0
vt 0.13005263698315275 0.71995295728025444 0
vt 0.12934440299526542 0.80067668827236438 0
vt 0.088499819694306314 0.79065077803960715 0
vt 0.1864459547396502 0.72430986634851346 0
vt 0.18682607163550249 0.80344429597861389 0
vt 0.79086414821486151 0.47357995350974813 0
vt 0.71489680398632915 0.47358022855436144 0
vt 0.71489666881983038 0.3975976646773316 0
vt 0.79086396988998076 0.39759723328893198 0
vt 0.093686127548853512 0.47358024891337142 0
vt 0.19192143166968453 0.89622889259676419 0
vt 0.80797566335934834 0.8967276993243255 0
vt 0.91222618208893602 0.87005969971206343 0
vt 0.017718982007835275 0.39759722851874491 0
vt 0.093686250712736174 0.39759766514532729 0
vt 0.91128599305378588 0.79025943895926942 0
vt 0.87044583327824931 0.8003082572064909 0
vt 0.86973564436225737 0.71964513549544573 0
vt 0.90495290565697417 0.71423673409816324 0
vt 0.81294706905286818 0.80290173061647985 0
vt 0.81331231075192001 0.72368403366934009 0
vt 0.017718880555239069 0.055706324411870872 0
vt 0.093686302937506044 0.093697252825369046 0
vt 0.017718991550412354 0.093697683527216413 0
vt 0.7908641079029769 0.32162231056075968 0
vt 0.79086411340977747 0.24564740738881996 0
vt 0.017718799366482584 0.2456474209748705 0
vt 0.017718842366368007 0.32162232051171596 0
vt 0.7686137867626367 0.028843493703226895 0
vt 0.13835446218321573 0.8895646309683688 0
vt 0.039968946781599485 0.52729705439086183 0
vt 0.85771041661279324 0.56749197610726909 0
vt 0.71489676139096026 0.32162219766251549 0
vt 0.093686160018548403 0.3216222117612284 0
vt 0.71489678479145946 0.24564746356919551 0
vt 0.093686144238143018 0.24564748111990625 0
vt 0.056847350489553111 0.70810280301391493 0
vt 0.070861714936020018 0.55828759733131439 0
vt 0.040820104606458532 0.77830363486458465 0
vt 0.017718750000000449 0.84864711399224579 0
vt 0.95892309468200709 0.77778000792147739 0
vt 0.98228125000000044 0.84797072644806915 0
vt 0.94277087381037372 0.70786568071377776 0
vt 0.92905403364429562 0.55890496313573645 0
vt 0.087804424631409708 0.87044651616440216 0
vt 0.89151499300858705 0.56342758837259288 0
vt 0.093686198844424862 0.017718750000000449 0
vt 0.039969079185410809 0.028843466570239017 0
vt 0.86163560687199114 0.8894894125740177 0
vt 0.093686056987439398 0.54954752329561996 0
vt 0.017718750000000449 0.47357997676888774 0
vt 0.71489687504697408 0.54954749013921456 0
vt 0.76861391333752171 0.52729702754508201 0
vt 0.14202929261030539 0.56641890952702167 0
vt 0.71489672876198407 0.017718772451205577 0
vt 0.79086404397370924 0.055706351417637398 0
#end 64 textures vertices 

#begin 96 normals 
vn 3.9999999999999998e-006 -1 9.0000000000000002e-006
vn 0 -1 1.0000000000000001e-005
vn 0 -1 9.9999999999999995e-007
vn 1.0000000000000001e-005 -1 9.9999999999999995e-007
vn 2.0000000000000002e-005 -1 -9.9999999999999995e-007
vn 2.0000000000000002e-005 -1 9.9999999999999995e-007
vn 1.0000000000000001e-005 -1 -9.9999999999999995e-007
vn 0.30199599999999999 -0.018735999999999999 0.953125
vn 0.61812500000000004 -0.04333 0.78488500000000005
vn 0.48988700000000002 -0.179285 0.85315200000000002
vn 0.22186800000000001 -0.070750999999999994 0.97250599999999998
vn 0.97374099999999997 -0.085075999999999999 0.21116499999999999
vn 0.99528399999999995 -0.095431000000000002 0.017402999999999998
vn 0.89490599999999998 -0.445747 0.021301
vn 0.88223499999999999 -0.39777400000000002 0.25186799999999998
vn 1.9999999999999999e-006 1 9.0000000000000002e-006
vn 5.0000000000000004e-006 1 9.9999999999999995e-007
vn 0 1 9.9999999999999995e-007
vn 0 1 1.0000000000000001e-005
vn 5.0000000000000004e-006 1 -9.9999999999999995e-007
vn 1.0000000000000001e-005 1 0
vn 1.0000000000000001e-005 1 -0
vn 1.9999999999999999e-006 1 -9.0000000000000002e-006
vn 0 1 -1.0000000000000001e-005
vn 0 1 -9.9999999999999995e-007
vn 0.22186800000000001 -0.070750999999999994 -0.97250700000000001
vn 0.48988599999999999 -0.179285 -0.85315200000000002
vn 0.61812400000000001 -0.04333 -0.78488599999999997
vn 0.30199500000000001 -0.018735999999999999 -0.953125
vn 0.88223499999999999 -0.39777400000000002 -0.25186799999999998
vn 0.89490599999999998 -0.445747 -0.021301
vn 0.99528399999999995 -0.095431000000000002 -0.017402999999999998
vn 0.97374099999999997 -0.085075999999999999 -0.21116499999999999
vn 3.9999999999999998e-006 -1 -9.0000000000000002e-006
vn 0 -1 -9.9999999999999995e-007
vn 0 -1 -1.0000000000000001e-005
vn 0 0 1
vn 0 0 1
vn 0 0 -1
vn 0 0 -1
vn 1.4e-005 -1 6.9999999999999999e-006
vn 6.9999999999999999e-006 1 6.9999999999999999e-006
vn 6.9999999999999999e-006 1 -6.9999999999999999e-006
vn 1.4e-005 -1 -6.9999999999999999e-006
vn 0 0 1
vn 0.324515 -0 0.94588099999999997
vn 0.63789200000000001 -0 0.77012599999999998
vn 0.97922200000000004 -0 0.202791
vn 0.99986399999999998 -0 0.016480000000000002
vn 0.99986399999999998 -0 -0.016480000000000002
vn 0.97922200000000004 -0 -0.20279
vn 0.63789099999999999 -0 -0.77012700000000001
vn 0.324515 -0 -0.94588099999999997
vn 0 0 -1
vn 0 0 -1
vn 0.251664 -0.12112299999999999 -0.96020499999999998
vn 0.43971700000000002 -0.21163000000000001 -0.87284700000000004
vn 0.80313199999999996 -0.52930299999999997 -0.27352700000000002
vn 0.81618800000000002 -0.57746799999999998 -0.019191
vn 0.81618800000000002 -0.57746799999999998 0.019191
vn 0.80313199999999996 -0.52930299999999997 0.27352700000000002
vn 0.43971700000000002 -0.21163100000000001 0.87284700000000004
vn 0.25166500000000003 -0.12112299999999999 0.96020499999999998
vn 0 0 1
vn -1 0 0
vn -1 0 0
vn -1 0 0
vn -1 0 0
vn -1 0 0
vn -1 0 0
vn -1 0 0
vn -1 0 0
vn -1 0 0
vn -1 0 0
vn -1 0 0
vn -1 0 0
vn -1 0 0
vn -1 0 0
vn -1 0 0
vn -1 0 0
vn -1 0 0
vn -1 0 0
vn -1 0 0
vn -1 0 0
vn -1 0 0
vn -1 0 0
vn -1 0 0
vn -1 0 0
vn -1 0 0
vn -1 0 0
vn -1 0 0
vn -1 0 0
vn -1 0 0
vn -1 0 0
vn -1 0 0
vn -1 0 0
#end 96 normals 

#begin 42 faces
g polySurface20
s 1
f 3/64/1 40/2/2 29/3/3 4/4/4 
f 16/55/5 1/63/6 4/4/4 13/7/7 
s 2
f 17/8/8 18/9/9 27/10/10 28/11/11 
s 3
f 18/9/12 19/12/13 26/13/14 27/10/15 
s 4
f 6/14/16 5/15/17 36/16/18 37/17/19 
f 11/18/20 5/15/17 8/60/21 12/58/22 
f 11/18/20 10/59/23 34/22/24 35/23/25 
s 5
f 23/24/26 24/25/27 21/26/28 22/27/29 
s 3
f 24/25/30 25/28/31 20/29/32 21/26/33 
s 1
f 14/30/34 13/7/7 30/31/35 31/32/36 
s 2
f 38/47/37 39/45/38 17/8/8 28/11/11 
s 4
f 35/23/25 36/16/18 5/15/17 11/18/20 
s 5
f 32/51/39 33/49/40 23/24/26 22/27/29 
s 1
f 29/3/3 30/31/35 13/7/7 4/4/4 
s 3
f 19/12/13 20/29/32 25/28/31 26/13/14 
s 1
f 3/64/1 4/4/4 1/63/6 2/37/41 
s 4
f 7/61/42 8/60/21 5/15/17 6/14/16 
f 9/39/43 10/59/23 11/18/20 12/58/22 
s 1
f 15/56/44 16/55/5 13/7/7 14/30/34 
s 2
f 39/45/38 40/46/45 3/1/46 17/8/8 
f 3/1/46 2/62/47 18/9/9 17/8/8 
s 3
f 2/62/48 1/6/49 19/12/13 18/9/12 
f 1/6/49 16/5/50 20/29/32 19/12/13 
f 21/26/33 20/29/32 16/5/50 15/40/51 
s 5
f 22/27/29 21/26/28 15/40/52 14/54/53 
f 31/52/54 32/51/39 22/27/29 14/54/53 
f 33/49/40 34/50/55 10/21/56 23/24/26 
f 10/21/56 9/57/57 24/25/27 23/24/26 
s 3
f 9/57/58 12/20/59 25/28/31 24/25/30 
f 26/13/14 25/28/31 12/20/59 8/19/60 
f 27/10/15 26/13/14 8/19/60 7/38/61 
s 2
f 28/11/11 27/10/10 7/38/62 6/53/63 
f 37/48/64 38/47/37 28/11/11 6/53/63 
s 7
f 30/31/65 29/3/66 43/43/67 44/44/68 
f 42/42/69 41/41/70 36/16/71 35/23/72 
f 44/44/68 43/43/67 41/41/70 42/42/69 
s off
f 40/2/73 39/34/74 43/43/75 29/3/76 
f 39/34/77 38/33/78 41/41/79 43/43/80 
f 38/33/81 37/17/82 36/16/83 41/41/84 
f 34/22/85 33/36/86 42/42/87 35/23/88 
f 33/36/89 32/35/90 44/44/91 42/42/92 
f 32/35/93 31/32/94 30/31/95 44/44/96 
#end 42 faces
#begin 1 properties
#U3D SYM 0 0 0 1 0 0 0.0001 0
#end 1 properties
