#File written by LIBUNFOLD3D. Compilation :Oct 26 2011,14:21:15

#begin vertices
v 0.000135 1.250006 5.1103249999999996
v 0.000135 1.249994 6.3601999999999999
v 0.88392800000000005 1.249994 5.9941199999999997
v 1.250005 1.249994 5.1103249999999996
v 0.88392800000000005 1.249994 -5.9941209999999998
v 0.000135 1.249994 -6.3601999999999999
v 0.000135 1.250006 -5.1103249999999996
v 1.250005 1.249994 -5.1103249999999996
v -1.249995 1.249994 -6.3601999999999999
v -1.2500020000000001 1.25 -5.1103249999999996
v -1.2500020000000001 1.25 5.1103249999999996
v -1.249995 1.249994 6.3601999999999999
v -1.2500100000000001 -0.00013200000000000001 -5.1103249999999996
v -1.249995 -0.00013200000000000001 -6.3601999999999999
v -1.249995 -0.88392700000000002 -5.9941209999999998
v -1.249995 -1.250006 -5.1103249999999996
v -1.249995 -0.88392700000000002 5.9941209999999998
v -1.249995 -0.00013200000000000001 6.3601999999999999
v -1.2500100000000001 -0.00013200000000000001 5.1103249999999996
v -1.249995 -1.250006 5.1103249999999996
v 0.11075 -0.0079690000000000004 5.9941199999999997
v 0.29378700000000002 -0.19100800000000001 5.1103249999999996
v 0.29378700000000002 -0.19100800000000001 -5.1103249999999996
v 0.11075 -0.0079690000000000004 -5.9941209999999998
v -0.49682100000000001 0.46135100000000001 -6.3601999999999999
v -0.45817400000000003 0.487232 6.3601989999999997
#end vertices

#begin 44 textures vertices 
vt 0.080729633737258208 0.5044660664941587 0
vt 0.71632168147731667 0.24611810240036822 0
vt 0.71632155140137177 0.1699795598064669 0
vt 0.018869556730688485 0.42141214615349842 0
vt 0.093841364484921197 0.24611810360030403 0
vt 0.18790152318519579 0.5498558086354034 0
vt 0.81206240733522439 0.55052487673634654 0
vt 0.91930819833692767 0.50494266127466503 0
vt 0.98228124999999955 0.46193834637224607 0
vt 0.093841494436902748 0.1699795392871937 0
vt 0.13057657908766104 0.53532455092532438 0
vt 0.8694188353070289 0.53585339924667597 0
vt 0.91892530290431962 0.37765380861354586 0
vt 0.093841364296796667 0.093841301200924335 0
vt 0.71632168145951303 0.093841300017792229 0
vt 0.8122729937833314 0.3310250194150734 0
vt 0.18786236963053649 0.33121859161609657 0
vt 0.081202432720002826 0.37747692699045188 0
vt 0.86954069760314334 0.34593220311824063 0
vt 0.13059977109833038 0.34589091282494389 0
vt 0.13435554434493741 0.44493142666069674 0
vt 0.18970220952442535 0.44486442299362411 0
vt 0.81041860290455392 0.44513195737235534 0
vt 0.86575413679703761 0.4452360018833314 0
vt 0.91558795525471515 0.43150844279947831 0
vt 0.083710021500270487 0.4502528744048398 0
vt 0.084595591212301549 0.43411702443533362 0
vt 0.91733771074461934 0.44806318192711092 0
vt 0.017718937771649155 0.1699795743312148 0
vt 0.98125330053395976 0.42163729856217858 0
vt 0.79244410816817135 0.16997958591604578 0
vt 0.017718749999999572 0.46154599889512515 0
vt 0.017718750954019809 0.093841563331481789 0
vt 0.77014864557378337 0.040014636517392545 0
vt 0.7163217512337533 0.017718749999999572 0
vt 0.79244429598932176 0.093841567675802789 0
vt 0.093841295763141722 0.01771876363492372 0
vt 0.040014402470834848 0.04001463889599452 0
vt 0.79244429474316025 0.24611784068836468 0
vt 0.040014400431140726 0.29994464536573873 0
vt 0.093841294727241148 0.32224041000108394 0
vt 0.017718749999999572 0.24611783610870128 0
vt 0.71632174995132702 0.3222403963598674 0
vt 0.77014858215972271 0.29994464311379887 0
#end 44 textures vertices 

#begin 50 normals 
vn 9.9999999999999995e-007 1 6.9999999999999999e-006
vn 1.9999999999999999e-006 1 9.9999999999999995e-007
vn -5.0000000000000004e-006 1 9.9999999999999995e-007
vn -1.9999999999999999e-006 1 6.9999999999999999e-006
vn 1.9999999999999999e-006 1 -9.9999999999999995e-007
vn 1.0000000000000001e-005 1 0
vn 1.0000000000000001e-005 1 -0
vn 9.9999999999999995e-007 1 -6.9999999999999999e-006
vn -1.9999999999999999e-006 1 -6.9999999999999999e-006
vn -5.0000000000000004e-006 1 -9.9999999999999995e-007
vn 6.9999999999999999e-006 1 6.9999999999999999e-006
vn 6.9999999999999999e-006 1 -6.9999999999999999e-006
vn -1 -9.9999999999999995e-007 -9.0000000000000002e-006
vn -1 -3.0000000000000001e-006 -9.9999999999999995e-007
vn -1 5.0000000000000004e-006 -9.9999999999999995e-007
vn -1 1.9999999999999999e-006 -9.0000000000000002e-006
vn -1 -3.0000000000000001e-006 9.9999999999999995e-007
vn -1 -1.2e-005 -9.9999999999999995e-007
vn -1 -1.2e-005 9.9999999999999995e-007
vn -1 -9.9999999999999995e-007 9.0000000000000002e-006
vn -1 1.9999999999999999e-006 9.0000000000000002e-006
vn -1 5.0000000000000004e-006 9.9999999999999995e-007
vn -1 -6.9999999999999999e-006 -9.0000000000000002e-006
vn -1 -6.9999999999999999e-006 9.0000000000000002e-006
vn 0.83363299999999996 -0.55193599999999998 0.020558
vn 0.80251700000000004 -0.51422400000000001 0.30255700000000002
vn 0.67301800000000001 -0.67252500000000004 0.30782500000000002
vn 0.706901 -0.70693099999999998 0.023238999999999999
vn 0.22838 -0.23180799999999999 0.945573
vn 0.30708200000000002 -0.187144 0.93310099999999996
vn 0 -0 1
vn 0.30406100000000003 -0.18870100000000001 -0.93377699999999997
vn 0.22580800000000001 -0.23291999999999999 -0.94591700000000001
vn 9.9999999999999995e-007 0 -1
vn 0.80251700000000004 -0.51422400000000001 -0.30255599999999999
vn 0.83363299999999996 -0.55193599999999998 -0.020558
vn 0.706901 -0.70693099999999998 -0.023238999999999999
vn 0.67301800000000001 -0.67252599999999996 -0.30782500000000002
vn 0.196829 -0.31077399999999999 0.92988099999999996
vn 0.52866400000000002 -0.79356800000000005 0.30127300000000001
vn 0.56483000000000005 -0.82495300000000005 0.020500999999999998
vn 0.56483000000000005 -0.82495300000000005 -0.020500999999999998
vn 0.52866299999999999 -0.79356800000000005 -0.30127300000000001
vn 0.19778100000000001 -0.31260599999999999 -0.929064
vn 0.36978299999999997 -0.229488 -0.90033099999999999
vn 0.31032199999999999 -0.29954700000000001 -0.90220400000000001
vn 0.23858599999999999 -0.37710199999999999 -0.89491399999999999
vn 0.308977 -0.303485 0.90134899999999996
vn 0.238623 -0.37676399999999999 0.89504600000000001
vn 0.37492700000000001 -0.228491 0.898455
#end 50 normals 

#begin 26 faces
g polySurface24
s 1
f 2/39/1 1/2/2 11/3/3 12/31/4 
f 7/5/5 1/2/2 4/43/6 8/41/7 
f 7/5/5 6/42/8 9/29/9 10/10/10 
f 10/10/10 11/3/3 1/2/2 7/5/5 
f 3/44/11 4/43/6 1/2/2 2/39/1 
f 5/40/12 6/42/8 7/5/5 8/41/7 
s 2
f 14/33/13 13/14/14 10/10/15 9/29/16 
f 19/15/17 13/14/14 16/37/18 20/35/19 
f 19/15/17 18/36/20 12/31/21 11/3/22 
f 11/3/22 10/10/15 13/14/14 19/15/17 
f 15/38/23 16/37/18 13/14/14 14/33/13 
f 17/34/24 18/36/20 19/15/17 20/35/19 
s 3
f 4/6/25 3/11/26 21/21/27 22/22/28 
s 4
f 26/26/29 2/1/30 12/32/31 
s 5
f 6/8/32 25/28/33 9/9/34 
s 3
f 5/12/35 8/7/36 23/23/37 24/24/38 
f 4/6/25 22/22/28 23/23/37 8/7/36 
s 4
f 18/18/39 26/27/29 12/4/31 
s 3
f 22/22/28 21/21/27 17/20/40 20/17/41 
f 23/23/37 22/22/28 20/17/41 16/16/42 
f 24/24/38 23/23/37 16/16/42 15/19/43 
s 5
f 9/30/34 25/25/33 14/13/44 
f 6/8/32 5/12/45 24/24/46 25/28/33 
f 14/13/44 25/25/33 24/24/46 15/19/47 
s 4
f 21/21/48 26/27/29 18/18/39 17/20/49 
f 3/11/50 2/1/30 26/26/29 21/21/48 
#end 26 faces
#begin 1 properties
#U3D SYM 0 0 0 1 0 0 0.0001 0
#end 1 properties
