#File written by LIBUNFOLD3D. Compilation :Oct 26 2011,14:21:15

#begin vertices
v -2.4999989999999999 -1.25 6.3601999999999999
v 2.4999989999999999 -1.25 6.3601999999999999
v -2.4999989999999999 1.25 6.3601999999999999
v 2.4999989999999999 1.25 6.3601999999999999
v -2.4999989999999999 1.25 -6.3601999999999999
v 2.4999989999999999 1.25 -6.3601999999999999
v -2.4999989999999999 -1.25 -6.3601999999999999
v 2.4999989999999999 -1.25 -6.3601999999999999
#end vertices

#begin 14 textures vertices 
vt 0.68838263254911369 0.68164344588703085 0
vt 0.74711117117617221 0.47583764812244128 0
vt 0.77647545223541514 0.37293470807897 0
vt 0.83520399086246488 0.16712891031437785 0
vt 0.25288882882382757 0.22352454776458949 0
vt 0.047083031059237467 0.1647960091375392 0
vt 0.22352454776459027 0.32642748780805914 0
vt 0.16479600913753187 0.53223328557264538 0
vt 0.31161736745087693 0.017718750000000449 0
vt 0.13543172807829013 0.63513622561611494 0
vt 0.017718750000000449 0.26769894918101034 0
vt 0.98228125000000044 0.43166324670602868 0
vt 0.65901835148987209 0.78454638593050108 0
vt 0.95291696894076017 0.5345661867494983 0
#end 14 textures vertices 

#begin 24 normals 
vn 0 0 1
vn 0 0 1
vn 0 0 1
vn 0 0 1
vn 0 1 0
vn 0 1 0
vn 0 1 0
vn 0 1 0
vn 0 0 -1
vn 0 0 -1
vn 0 0 -1
vn 0 0 -1
vn 0 -1 0
vn 0 -1 0
vn 0 -1 0
vn 0 -1 0
vn 1 0 0
vn 1 0 0
vn 1 0 0
vn 1 0 0
vn -1 0 0
vn -1 0 0
vn -1 0 0
vn -1 0 0
#end 24 normals 

#begin 6 faces
g polySurface3
s off
f 1/14/1 2/2/2 4/3/3 3/12/4 
f 3/4/5 4/3/6 6/5/7 5/9/8 
f 5/6/9 6/5/10 8/7/11 7/11/12 
f 7/8/13 8/7/14 2/2/15 1/1/16 
f 2/2/17 8/7/18 6/5/19 4/3/20 
f 7/8/21 1/1/22 3/13/23 5/10/24 
#end 6 faces
#begin 1 properties
#U3D SYM 0 0 0 1 0 0 0.0001 0
#end 1 properties
