#File written by LIBUNFOLD3D. Compilation :Oct 26 2011,14:21:15

#begin vertices
v -1.250129 -1.250003 5.1103249999999996
v -1.250129 -1.2499899999999999 6.3601999999999999
v -2.1339239999999999 -1.2499899999999999 5.9941199999999997
v -2.500003 -1.2499899999999999 5.1103249999999996
v 2.500003 -1.2499899999999999 5.1103249999999996
v 2.4999910000000001 -1.2499899999999999 6.3601999999999999
v -2.1339239999999999 0.88392400000000004 5.1103249999999996
v -2.500003 0.00012899999999999999 5.1103249999999996
v -2.1339239999999999 0.00012899999999999999 5.9941199999999997
v -1.250129 0.00012899999999999999 6.3601999999999999
v -1.250129 0.88392400000000004 5.9941199999999997
v -1.250129 1.250003 5.1103249999999996
v 2.4999910000000001 1.250003 5.1103249999999996
v 2.4999910000000001 0.88392400000000004 5.9941199999999997
v 2.4999910000000001 0.00012899999999999999 6.3601999999999999
v 2.500003 0.00012899999999999999 5.1103249999999996
v -2.1339239999999999 0.00012899999999999999 -5.9941209999999998
v -2.500003 0.00012899999999999999 -5.1103249999999996
v -2.1339239999999999 0.88392400000000004 -5.1103249999999996
v -1.250129 1.250003 -5.1103249999999996
v -1.250129 0.88392400000000004 -5.9941209999999998
v -1.250129 0.00012899999999999999 -6.3601999999999999
v 2.4999910000000001 0.00012899999999999999 -6.3601999999999999
v 2.4999910000000001 0.88392400000000004 -5.9941209999999998
v 2.4999910000000001 1.250003 -5.1103249999999996
v 2.500003 0.00012899999999999999 -5.1103249999999996
v -2.500003 -1.2499899999999999 -5.1103249999999996
v -2.1339239999999999 -1.2499899999999999 -5.9941209999999998
v -1.250129 -1.2499899999999999 -6.3601999999999999
v -1.250129 -1.250003 -5.1103249999999996
v 2.4999910000000001 -1.2499899999999999 -6.3601999999999999
v 2.500003 -1.2499899999999999 -5.1103249999999996
v -1.971492 0.72149200000000002 5.8316889999999999
v -1.971492 0.72149200000000002 -5.8316889999999999
#end vertices

#begin 54 textures vertices 
vt 0.67323610851935811 0.49646740971516418 0
vt 0.089146564765989422 0.49646734302569745 0
vt 0.93074273509696481 0.070102405638222537 0
vt 0.20765373586629049 0.018321664792010216 0
vt 0.017719016300894688 0.71077940428463515 0
vt 0.96136730592516118 0.17897818874173113 0
vt 0.038639434181851874 0.445960333741865 0
vt 0.87893109455663587 0.14065757424575068 0
vt 0.79096463472133804 0.089225621672658337 0
vt 0.8921172272912441 0.19157924640834156 0
vt 0.089146804691196929 0.71077978467047209 0
vt 0.67323586523860834 0.71077974773803387 0
vt 0.017718864211939574 0.78222129299992482 0
vt 0.089146681763947674 0.78222153350558776 0
vt 0.81204110234007554 0.11761475796589523 0
vt 0.20779068306038334 0.14456647804346368 0
vt 0.13783853627756065 0.090280568900460739 0
vt 0.78792777327601982 0.19835814683010711 0
vt 0.21078045613840504 0.1994624063446907 0
vt 0.83980764102112093 0.19675550246986534 0
vt 0.85368077778765294 0.40987285816216468 0
vt 0.089146630558476964 0.8536492874290148 0
vt 0.67323603378167562 0.8536492249534734 0
vt 0.67323597210488562 0.78222148017387916 0
vt 0.11966483507786764 0.14049671879103917 0
vt 0.050191666429728055 0.12335445250091062 0
vt 0.10645878390300596 0.19129556801914796 0
vt 0.036850510730654665 0.17965922774701779 0
vt 0.15858999404864169 0.19699697031562399 0
vt 0.14531835239660271 0.4082799799382994 0
vt 0.74466381905110601 0.78222125933568876 0
vt 0.74466363931518098 0.71077937244772138 0
vt 0.83676471395302876 0.15331904321473724 0
vt 0.16181917706684537 0.15361606374511516 0
vt 0.74466392366787493 0.49646754308299312 0
vt 0.017718750000000449 0.39610517241634369 0
vt 0.089135037527765762 0.40361668866910805 0
vt 0.20171687022592638 0.4118898077060103 0
vt 0.72374320221509558 0.83272844382278066 0
vt 0.72374329842865315 0.44596039784960156 0
vt 0.67323613995036891 0.42503965407788485 0
vt 0.79687831384345587 0.41453442423180242 0
vt 0.90974620156783592 0.40425924399324431 0
vt 0.038639518829427823 0.83272849249788294 0
vt 0.98228125000000044 0.39643182983179687 0
vt 0.94722542230795048 0.12299729636957007 0
vt 0.017718750000000449 0.4964674761948103 0
vt 0.089146532119019781 0.42503959554191723 0
vt 0.18674271749767174 0.11833618528138311 0
vt 0.79095206775440574 0.1439383484161168 0
vt 0.066801871171572227 0.069433669628198816 0
vt 0.20771523274267828 0.089836524923454023 0
vt 0.8609349793501222 0.0898223682197824 0
vt 0.79094395446408516 0.017718750000000449 0
#end 54 textures vertices 

#begin 66 normals 
vn 0 -1 -9.9999999999999995e-007
vn 0 -1 9.9999999999999995e-007
vn -1.0000000000000001e-005 -1 0
vn -1.0000000000000001e-005 -1 -0
vn -0.99945700000000004 0 0.032948999999999999
vn -0.92388000000000003 0 0.382683
vn -0.92280200000000001 0.117719 0.36684899999999998
vn -0.98574600000000001 0.165877 0.028084999999999999
vn -0.38268400000000002 0 0.92388000000000003
vn -0.078755000000000006 0 0.99689399999999995
vn -0.068044999999999994 0.161084 0.98459200000000002
vn -0.36685000000000001 0.117718 0.92280200000000001
vn 1 1.9999999999999999e-006 7.9999999999999996e-006
vn 1 0 9.0000000000000002e-006
vn 1 0 9.9999999999999995e-007
vn 1 5.0000000000000004e-006 9.9999999999999995e-007
vn -0.92463799999999996 0.38028000000000001 0.020778000000000001
vn -0.92463799999999996 0.38028000000000001 -0.020778000000000001
vn -0.98574700000000004 0.165877 -0.028084999999999999
vn -0.38028099999999998 0.92463799999999996 0.020778000000000001
vn -0.076866000000000004 0.99656500000000003 0.030809
vn -0.076866000000000004 0.99656500000000003 -0.030809
vn -0.38028099999999998 0.92463799999999996 -0.020778000000000001
vn -0.051228999999999997 0.92501699999999998 0.37645699999999999
vn 0 0.92388000000000003 0.382683
vn 0 0.99945700000000004 0.032948999999999999
vn -0.051228999999999997 0.37645800000000001 0.92501599999999995
vn 0 0.16908300000000001 0.98560199999999998
vn 0 0.382683 0.92388000000000003
vn 1 9.0000000000000002e-006 -0
vn 1 9.0000000000000002e-006 0
vn 1 5.0000000000000004e-006 -9.9999999999999995e-007
vn -0.92280300000000004 0.117718 -0.36684899999999998
vn -0.92388000000000003 0 -0.382683
vn -0.99945700000000004 0 -0.032948999999999999
vn -0.36684899999999998 0.117719 -0.92280200000000001
vn -0.068044999999999994 0.161084 -0.98459200000000002
vn -0.078755000000000006 0 -0.99689399999999995
vn -0.382683 0 -0.92388000000000003
vn -0.051228999999999997 0.37645699999999999 -0.92501599999999995
vn 0 0.382683 -0.92388000000000003
vn 0 0.16908300000000001 -0.98560199999999998
vn -0.051228999999999997 0.92501699999999998 -0.37645699999999999
vn 0 0.99945700000000004 -0.032948999999999999
vn 0 0.92388000000000003 -0.38268200000000002
vn 1 0 -9.0000000000000002e-006
vn 1 1.9999999999999999e-006 -7.9999999999999996e-006
vn 1 0 -9.9999999999999995e-007
vn 3.0000000000000001e-006 -1 9.9999999999999995e-007
vn 1.9999999999999999e-006 -1 5.0000000000000004e-006
vn 0 -1 5.0000000000000004e-006
vn 0 0 1
vn 0 0 -1
vn -6.9999999999999999e-006 -1 6.9999999999999999e-006
vn -0.32526899999999997 0.88791900000000001 0.32526899999999997
vn -0.88791900000000001 0.32527 0.32526899999999997
vn -0.32527 0.32527 0.88791900000000001
vn 1 6.0000000000000002e-006 6.0000000000000002e-006
vn -0.32527 0.32527 -0.88791799999999999
vn -0.88791900000000001 0.32526899999999997 -0.32526899999999997
vn -0.32526899999999997 0.88791900000000001 -0.32526899999999997
vn 1 6.9999999999999999e-006 -6.0000000000000002e-006
vn 0 -1 -5.0000000000000004e-006
vn -6.9999999999999999e-006 -1 -6.9999999999999999e-006
vn 1.9999999999999999e-006 -1 -5.0000000000000004e-006
vn 3.0000000000000001e-006 -1 -9.9999999999999995e-007
#end 66 normals 

#begin 32 faces
g polySurface5
s 1
f 30/1/1 1/2/2 4/48/3 27/41/4 
s 2
f 4/3/5 3/46/6 9/8/7 8/53/8 
s 3
f 3/46/9 2/6/10 10/10/11 9/8/12 
s 4
f 15/13/13 6/5/14 5/11/15 16/14/16 
s 2
f 8/9/8 7/50/17 19/16/18 18/52/19 
s 5
f 7/50/20 12/18/21 20/19/22 19/16/23 
f 12/18/21 11/20/24 14/21/25 13/42/26 
s 3
f 11/20/27 10/10/11 15/43/28 14/21/29 
s 4
f 25/23/30 13/22/31 16/14/16 26/24/32 
s 2
f 18/17/19 17/25/33 28/26/34 27/51/35 
s 6
f 17/25/36 22/27/37 29/28/38 28/26/39 
f 22/27/37 21/29/40 24/30/41 23/37/42 
s 5
f 21/29/43 20/19/22 25/38/44 24/30/45 
s 4
f 31/32/46 23/31/47 26/24/32 32/12/48 
s 1
f 1/2/2 5/11/49 6/5/50 2/47/51 
s 3
f 2/6/10 6/45/52 15/43/28 10/10/11 
s 5
f 12/18/21 13/42/26 25/38/44 20/19/22 
s 6
f 22/27/37 23/37/42 31/36/53 29/28/38 
s 4
f 5/11/15 32/12/48 26/24/32 16/14/16 
s 2
f 27/4/35 4/54/5 8/9/8 18/52/19 
s 1
f 3/7/54 4/48/3 1/2/2 2/47/51 
s 5
f 11/20/24 12/18/21 7/50/20 33/33/55 
s 2
f 7/15/17 8/53/8 9/8/7 33/33/56 
s 3
f 9/8/12 10/10/11 11/20/27 33/33/57 
s 4
f 15/13/13 16/14/16 13/22/31 14/44/58 
s 6
f 21/29/40 22/27/37 17/25/36 34/34/59 
s 2
f 17/25/33 18/17/19 19/49/18 34/34/60 
s 5
f 19/16/23 20/19/22 21/29/43 34/34/61 
s 4
f 25/23/30 26/24/32 23/31/47 24/39/62 
s 1
f 29/35/63 30/1/1 27/41/4 28/40/64 
f 30/1/1 29/35/63 31/32/65 32/12/66 
f 30/1/1 32/12/66 5/11/49 1/2/2 
#end 32 faces
#begin 1 properties
#U3D SYM 0 0 0 1 0 0 0.0001 0
#end 1 properties
