#File written by LIBUNFOLD3D. Compilation :Oct 26 2011,14:21:15

#begin vertices
v -1.2501260000000001 -2.500003 5.1103249999999996
v -1.2501260000000001 -2.4999899999999999 6.3601999999999999
v -2.133921 -2.4999899999999999 5.9941199999999997
v -2.5 -2.4999899999999999 5.1103249999999996
v 2.5 -2.4999899999999999 5.1103249999999996
v 2.133921 -2.4999899999999999 5.9941199999999997
v 1.2501260000000001 -2.4999899999999999 6.3601999999999999
v 1.2501260000000001 -2.500003 5.1103249999999996
v -0.656246 2.1339239999999999 5.1103249999999996
v -1.1428259999999999 1.2501279999999999 5.1103249999999996
v -0.62694399999999995 1.2501279999999999 5.9941199999999997
v -0.26057399999999997 1.2501279999999999 6.3601999999999999
v -0.12501300000000001 2.1339239999999999 5.9941199999999997
v -0.12501300000000001 2.500003 5.1103249999999996
v 0.656246 2.1339239999999999 5.1103249999999996
v 0.12501300000000001 2.500003 5.1103249999999996
v 0.12501300000000001 2.1339239999999999 5.9941199999999997
v 0.26057399999999997 1.2501279999999999 6.3601999999999999
v 0.62694399999999995 1.2501279999999999 5.9941199999999997
v 1.1428259999999999 1.2501279999999999 5.1103249999999996
v -0.62694399999999995 1.2501279999999999 -5.9941209999999998
v -1.1428259999999999 1.2501279999999999 -5.1103249999999996
v -0.656246 2.1339239999999999 -5.1103249999999996
v -0.12501300000000001 2.500003 -5.1103249999999996
v -0.12501300000000001 2.1339239999999999 -5.9941209999999998
v -0.26057399999999997 1.2501279999999999 -6.3601999999999999
v 0.62694399999999995 1.2501279999999999 -5.9941209999999998
v 0.26057399999999997 1.2501279999999999 -6.3601999999999999
v 0.12501300000000001 2.1339239999999999 -5.9941209999999998
v 0.12501300000000001 2.500003 -5.1103249999999996
v 0.656246 2.1339239999999999 -5.1103249999999996
v 1.1428259999999999 1.2501279999999999 -5.1103249999999996
v -2.5 -2.4999899999999999 -5.1103249999999996
v -2.133921 -2.4999899999999999 -5.9941209999999998
v -1.2501260000000001 -2.4999899999999999 -6.3601999999999999
v -1.2501260000000001 -2.500003 -5.1103249999999996
v 1.2501260000000001 -2.500003 -5.1103249999999996
v 1.2501260000000001 -2.4999899999999999 -6.3601999999999999
v 2.133921 -2.4999899999999999 -5.9941209999999998
v 2.5 -2.4999899999999999 -5.1103249999999996
v -0.46164699999999997 1.971492 5.8316889999999999
v 0.46164699999999997 1.971492 5.8316889999999999
v -0.46164699999999997 1.971492 -5.8316889999999999
v 0.46164699999999997 1.971492 -5.8316889999999999
v -1.8929670000000001 -1.6516010000000001 5.9941199999999997
v -1.0834809999999999 -1.6516010000000001 6.3601999999999999
v 1.0834809999999999 -1.6516010000000001 6.3601999999999999
v 1.8929670000000001 -1.6516010000000001 5.9941199999999997
v 2.3152370000000002 -1.6516010000000001 5.1103249999999996
v 2.315239 -1.6516010000000001 -5.1103249999999996
v 1.8929670000000001 -1.6516010000000001 -5.9941209999999998
v 1.083477 -1.6516010000000001 -6.3601999999999999
v -1.0834790000000001 -1.6516010000000001 -6.3601999999999999
v -1.8929670000000001 -1.6516010000000001 -5.9941209999999998
v -2.3152370000000002 -1.6516010000000001 -5.1103240000000003
v -2.3152370000000002 -1.6516010000000001 5.1103249999999996
#end vertices

#begin 84 textures vertices 
vt 0.067410496045767113 0.52624294942625804 0
vt 0.067410496455103316 0.93258946402754062 0
vt 0.82217054965229519 0.469411803003835 0
vt 0.38470220566214891 0.046547224319875104 0
vt 0.73292375816457922 0.62876816427567128 0
vt 0.79102287480875333 0.54135094036369225 0
vt 0.16681402608177245 0.93258946422974642 0
vt 0.78849558018210197 0.46056295744438391 0
vt 0.77632674878724828 0.49752664182486694 0
vt 0.65506548368759987 0.4789458365949677 0
vt 0.62788891495140087 0.40975178974859433 0
vt 0.75896338920529038 0.52908936287788511 0
vt 0.64866846396795941 0.49756158345882506 0
vt 0.017718750000000449 0.23073017020475942 0
vt 0.4558983352366483 0.65690128528992131 0
vt 0.16681402591581831 0.52624294946218575 0
vt 0.70919476847064244 0.60375061953171638 0
vt 0.68679416775444335 0.63196652577748991 0
vt 0.62240468173668173 0.52673907489790017 0
vt 0.6370648824385613 0.51366415634203011 0
vt 0.47565123667603887 0.62851648320008746 0
vt 0.5886224758320775 0.54845948072900941 0
vt 0.61579600714023519 0.44681857876020115 0
vt 0.26239202683994572 0.20122468323844697 0
vt 0.25219078583643423 0.15536006932957269 0
vt 0.59026227918848961 0.46382688112437248 0
vt 0.25613349057996815 0.23131962956498525 0
vt 0.61851769590104899 0.48377054338062064 0
vt 0.61371048531321659 0.4911352499295677 0
vt 0.58447888368607182 0.47213180272453137 0
vt 0.57818562998906375 0.50226396597058864 0
vt 0.22474101601972446 0.25666926945981533 0
vt 0.25034947159340903 0.23962554412703818 0
vt 0.21272143013052119 0.29369680698401829 0
vt 0.2180664976700035 0.17660115199824927 0
vt 0.15605217319670242 0.070705705563862548 0
vt 0.36495082649488031 0.074932970897078871 0
vt 0.2031217062773478 0.1894278465561112 0
vt 0.13320201120166619 0.098550104196508115 0
vt 0.2268946037190398 0.21224005889339392 0
vt 0.2221518328617838 0.21966394930804126 0
vt 0.19241021771850003 0.20611507159900741 0
vt 0.18567892960116211 0.22456437961963288 0
vt 0.064144838118917816 0.20352899573575492 0
vt 0.082027676843733605 0.17225341676196107 0
vt 0.051220258625946563 0.24023177268365245 0
vt 0.10978863557649303 0.073203125034555033 0
vt 0.16681402595812816 0.47655116380187407 0
vt 0.032273101559092007 0.96772685945839165 0
vt 0.20195142114254969 0.96772685954545268 0
vt 0.62704024598082919 0.47208304366711662 0
vt 0.60580479429934431 0.5033026782933121 0
vt 0.23470628592207476 0.20009124847958967 0
vt 0.21364224387120886 0.23141946095694957 0
vt 0.13559049573071533 0.042469463232029478 0
vt 0.030516842618976928 0.19438057037482143 0
vt 0.067410496365125167 0.4765511637191826 0
vt 0.050155780665270829 0.15957610048297996 0
vt 0.216505771934728 0.5262429497017177 0
vt 0.20195142120225618 0.49110551462419111 0
vt 0.032273101082280653 0.4911055143422246 0
vt 0.017718750000000449 0.52624294965289176 0
vt 0.70775907452325271 0.65984175587829252 0
vt 0.21650577204974664 0.93258946433365908 0
vt 0.16681402590788433 0.98228125000000044 0
vt 0.8101055270122941 0.5060665874177428 0
vt 0.067410496496948066 0.98228124977824927 0
vt 0.017718750477366024 0.93258946452539704 0
vt 0.69908197653900384 0.30743674017930661 0
vt 0.71883344128433435 0.2790509399295279 0
vt 0.65745929436286044 0.6575235250997773 0
vt 0.54684949240014913 0.52620501579142409 0
vt 0.56980163638716108 0.49322292069634766 0
vt 0.60493845074210895 0.44273503190895297 0
vt 0.6622148416039435 0.43938929765516305 0
vt 0.67867491780386902 0.68515259282316943 0
vt 0.18589819211827888 0.045744140158171277 0
vt 0.29375881322885916 0.1772464356470094 0
vt 0.14152426859651335 0.39600669338566569 0
vt 0.12177143120396786 0.42439140301678885 0
vt 0.17794156855347806 0.26397645974027156 0
vt 0.16521784798036288 0.017718750000000449 0
vt 0.23567282162748401 0.2607157990785271 0
vt 0.27080908104526114 0.21022862002575657 0
#end 84 textures vertices 

#begin 96 normals 
vn -3.0000000000000001e-006 -1 -9.9999999999999995e-007
vn -3.0000000000000001e-006 -1 9.9999999999999995e-007
vn -1.0000000000000001e-005 -1 0
vn -1.0000000000000001e-005 -1 -0
vn 1.9999999999999999e-006 -1 1.0000000000000001e-005
vn -1.9999999999999999e-006 -1 1.0000000000000001e-005
vn 3.0000000000000001e-006 -1 9.9999999999999995e-007
vn -0.93938299999999997 0.341005 0.035707999999999997
vn -0.84091899999999997 0.32545099999999999 0.432363
vn -0.82896899999999996 0.35457899999999998 0.43253200000000003
vn -0.91555399999999998 0.40031 0.038894999999999999
vn -0.47512300000000002 0.153505 0.86642600000000003
vn -0.18364900000000001 0.062084 0.98102900000000004
vn -0.16866999999999999 0.086152999999999993 0.9819
vn -0.53362100000000001 0.20944699999999999 0.81937800000000005
vn 1.0000000000000001e-005 -1 -0
vn 1.0000000000000001e-005 -1 0
vn 3.0000000000000001e-006 -1 -9.9999999999999995e-007
vn 0.18364900000000001 0.062084 0.98102999999999996
vn 0.47512300000000002 0.153505 0.86642600000000003
vn 0.53362100000000001 0.20944699999999999 0.81937800000000005
vn 0.16866999999999999 0.086152999999999993 0.9819
vn 0.84091899999999997 0.32545099999999999 0.43236200000000002
vn 0.93938299999999997 0.341005 0.035707999999999997
vn 0.91555399999999998 0.40031 0.038894999999999999
vn 0.82896999999999998 0.35457899999999998 0.432531
vn -0.877911 0.47804999999999997 0.027217000000000002
vn -0.877911 0.47804999999999997 -0.027217000000000002
vn -0.91555399999999998 0.40031 -0.038894999999999999
vn -0.56723599999999996 0.82333699999999999 0.018957999999999999
vn -0.42070999999999997 0.90691200000000005 0.02266
vn -0.42070999999999997 0.90691200000000005 -0.02266
vn -0.56723599999999996 0.82333699999999999 -0.018957999999999999
vn -0.34009600000000001 0.86911700000000003 0.359124
vn 0.34009499999999998 0.86911799999999995 0.35912300000000003
vn 0.42070999999999997 0.90691200000000005 0.02266
vn -0.27657100000000001 0.38872200000000001 0.87886500000000001
vn 0.27657100000000001 0.38872200000000001 0.87886500000000001
vn 0.56723599999999996 0.82333699999999999 0.018957999999999999
vn 0.56723599999999996 0.82333699999999999 -0.018957999999999999
vn 0.42070999999999997 0.90691200000000005 -0.02266
vn 0.877911 0.47804999999999997 0.027217000000000002
vn 0.91555399999999998 0.40031 -0.038894999999999999
vn 0.877911 0.47804999999999997 -0.027217000000000002
vn -0.82896999999999998 0.35457899999999998 -0.43253000000000003
vn -0.84091899999999997 0.32545099999999999 -0.432361
vn -0.93938299999999997 0.341005 -0.035707999999999997
vn -0.53361899999999995 0.20944599999999999 -0.81937899999999997
vn -0.16866999999999999 0.086152999999999993 -0.9819
vn -0.18364800000000001 0.062084 -0.98102999999999996
vn -0.47512199999999999 0.153505 -0.86642699999999995
vn -0.27657100000000001 0.38872099999999998 -0.87886500000000001
vn 0.27657100000000001 0.38872099999999998 -0.87886500000000001
vn 0.16866999999999999 0.086152999999999993 -0.9819
vn -0.34009600000000001 0.86911700000000003 -0.359124
vn 0.34009600000000001 0.86911700000000003 -0.359124
vn 0.53361899999999995 0.20944599999999999 -0.81938
vn 0.47512100000000002 0.153505 -0.86642699999999995
vn 0.18364800000000001 0.062084 -0.98102999999999996
vn 0.82896899999999996 0.35457899999999998 -0.43253200000000003
vn 0.93938299999999997 0.341005 -0.035707999999999997
vn 0.84091800000000005 0.32545099999999999 -0.432363
vn -1.9999999999999999e-006 -1 -1.0000000000000001e-005
vn 1.9999999999999999e-006 -1 -1.0000000000000001e-005
vn -6.9999999999999999e-006 -1 7.9999999999999996e-006
vn 6.9999999999999999e-006 -1 7.9999999999999996e-006
vn -0.53565700000000005 0.780644 0.32197399999999998
vn -0.83148900000000003 0.378803 0.40636800000000001
vn -0.61337200000000003 0.34834999999999999 0.70882000000000001
vn 0.83148900000000003 0.378801 0.40636899999999998
vn 0.53565499999999999 0.78064500000000003 0.32197300000000001
vn 0.61337200000000003 0.34835100000000002 0.70882000000000001
vn -0.61337299999999995 0.34834900000000002 -0.70882000000000001
vn -0.83148900000000003 0.378801 -0.40636800000000001
vn -0.53565600000000002 0.78064500000000003 -0.32197300000000001
vn 0.83148900000000003 0.37880200000000003 -0.40636800000000001
vn 0.61337299999999995 0.34834999999999999 -0.70882000000000001
vn 0.53565600000000002 0.78064500000000003 -0.32197300000000001
vn -6.9999999999999999e-006 -1 -7.9999999999999996e-006
vn 6.9999999999999999e-006 -1 -7.9999999999999996e-006
vn -0.39508799999999999 0.094907000000000005 0.91372799999999998
vn -0.135129 0.032460000000000003 0.99029599999999995
vn 0.135129 0.032460000000000003 0.99029599999999995
vn 0.39508799999999999 0.094907000000000005 0.91372799999999998
vn 0.89021099999999997 0.22335199999999999 0.397036
vn 0.97605399999999998 0.21501500000000001 0.032985
vn 0.97605399999999998 0.21501500000000001 -0.032985
vn 0.89021099999999997 0.22335199999999999 -0.39703699999999997
vn 0.39508700000000002 0.094908000000000006 -0.91372799999999998
vn 0.135129 0.032460999999999997 -0.99029599999999995
vn -0.135129 0.032460999999999997 -0.99029599999999995
vn -0.39508700000000002 0.094908000000000006 -0.91372799999999998
vn -0.89021099999999997 0.223354 -0.397036
vn -0.97605299999999995 0.21501500000000001 -0.032985
vn -0.97605399999999998 0.21501500000000001 0.032985
vn -0.89021099999999997 0.223354 0.397036
#end 96 normals 

#begin 54 faces
g polySurface9
s 1
f 36/1/1 1/2/2 4/68/3 33/62/4 
f 7/65/5 2/67/6 1/2/2 8/7/7 
s 2
f 56/8/8 45/9/9 11/10/10 10/75/11 
s 3
f 45/9/12 46/12/13 12/13/14 11/10/15 
s 1
f 40/59/16 5/64/17 8/7/7 37/16/18 
s 3
f 47/17/19 48/18/20 19/19/21 18/20/22 
s 5
f 48/18/23 49/71/24 20/22/25 19/19/26 
s 2
f 10/11/11 9/74/27 23/84/28 22/78/29 
s 6
f 9/74/30 14/26/31 24/27/32 23/84/33 
f 14/26/31 13/28/34 17/29/35 16/30/36 
s 3
f 13/28/37 12/13/14 18/20/22 17/29/38 
s 6
f 16/30/36 15/73/39 31/83/40 30/33/41 
s 5
f 15/73/42 20/72/25 32/34/43 31/83/44 
s 2
f 22/25/29 21/35/45 54/36/46 55/77/47 
s 7
f 21/35/48 26/38/49 53/39/50 54/36/51 
f 26/38/49 25/40/52 29/41/53 28/42/54 
s 6
f 25/40/55 24/27/32 30/33/41 29/41/56 
s 7
f 28/42/54 27/43/57 51/44/58 52/45/59 
s 5
f 27/43/60 32/81/43 50/46/61 51/44/62 
s 1
f 37/16/18 36/1/1 35/57/63 38/48/64 
s 3
f 46/12/13 47/17/19 18/20/22 12/13/14 
s 6
f 14/26/31 16/30/36 30/33/41 24/27/32 
s 7
f 26/38/49 28/42/54 52/45/59 53/39/50 
s 1
f 36/1/1 37/16/18 8/7/7 1/2/2 
s 5
f 49/21/24 50/79/61 32/34/43 20/72/25 
s 2
f 55/37/47 56/69/8 10/11/11 22/78/29 
s 1
f 3/49/65 4/68/3 1/2/2 2/67/6 
f 7/65/5 8/7/7 5/64/17 6/50/66 
s 6
f 13/28/34 14/26/31 9/23/30 41/51/67 
s 2
f 9/23/27 10/75/11 11/10/10 41/51/68 
s 3
f 11/10/15 12/13/14 13/28/37 41/51/69 
s 5
f 19/19/26 20/22/25 15/31/42 42/52/70 
s 6
f 15/31/39 16/30/36 17/29/35 42/52/71 
s 3
f 17/29/38 18/20/22 19/19/21 42/52/72 
s 7
f 25/40/52 26/38/49 21/35/48 43/53/73 
s 2
f 21/35/45 22/25/29 23/24/28 43/53/74 
s 6
f 23/24/33 24/27/32 25/40/55 43/53/75 
s 5
f 31/32/44 32/81/43 27/43/60 44/54/76 
s 7
f 27/43/57 28/42/54 29/41/53 44/54/77 
s 6
f 29/41/56 30/33/41 31/32/40 44/54/78 
s 1
f 35/57/63 36/1/1 33/62/4 34/61/79 
f 39/60/80 40/59/16 37/16/18 38/48/64 
s 3
f 3/66/81 2/6/82 46/12/13 45/9/12 
f 2/6/82 7/5/83 47/17/19 46/12/13 
f 7/5/83 6/63/84 48/18/20 47/17/19 
s 5
f 6/63/85 5/76/86 49/71/24 48/18/23 
f 5/15/86 40/80/87 50/79/61 49/21/24 
f 51/44/62 50/46/61 40/14/87 39/56/88 
s 7
f 52/45/59 51/44/58 39/56/89 38/58/90 
f 53/39/50 52/45/59 38/58/90 35/47/91 
f 54/36/51 53/39/50 35/47/91 34/55/92 
s 2
f 55/77/47 54/36/46 34/55/93 33/82/94 
f 33/4/94 4/70/95 56/69/8 55/37/47 
f 4/3/95 3/66/96 45/9/9 56/8/8 
#end 54 faces
#begin 1 properties
#U3D SYM 0 0 0 1 0 0 0.0001 0
#end 1 properties
