#File written by LIBUNFOLD3D. Compilation :Oct 26 2011,14:21:15

#begin vertices
v -1.2501249999999999 -7.4999919999999998 5.1103249999999996
v -1.2501249999999999 -7.4999789999999997 6.3601999999999999
v -2.1339199999999998 -7.4999789999999997 5.9941199999999997
v -2.5 -7.4999789999999997 5.1103249999999996
v 2.5 -7.4999789999999997 5.1103249999999996
v 2.1339199999999998 -7.4999789999999997 5.9941199999999997
v 1.2501249999999999 -7.4999789999999997 6.3601999999999999
v 1.2501249999999999 -7.4999919999999998 5.1103249999999996
v -2.5 -7.4999789999999997 -5.1103249999999996
v -2.1339199999999998 -7.4999789999999997 -5.9941209999999998
v -1.2501249999999999 -7.4999789999999997 -6.3601999999999999
v -1.2501249999999999 -7.4999919999999998 -5.1103249999999996
v 1.2501249999999999 -7.4999919999999998 -5.1103249999999996
v 1.2501249999999999 -7.4999789999999997 -6.3601999999999999
v 2.1339199999999998 -7.4999789999999997 -5.9941209999999998
v 2.5 -7.4999789999999997 -5.1103249999999996
v -2.5 7.4999830000000003 5.1103249999999996
v -2.1339199999999998 7.4999830000000003 5.9941199999999997
v -1.2501249999999999 7.4999830000000003 6.3601999999999999
v -1.2501249999999999 7.4999909999999996 5.1103249999999996
v 1.2501249999999999 7.4999909999999996 5.1103249999999996
v 1.2501249999999999 7.4999830000000003 6.3601999999999999
v 2.1339199999999998 7.4999830000000003 5.9941199999999997
v 2.5 7.4999830000000003 5.1103249999999996
v -2.1339199999999998 7.4999830000000003 -5.9941209999999998
v -2.5 7.4999830000000003 -5.1103249999999996
v -1.2501249999999999 7.4999909999999996 -5.1103249999999996
v -1.2501249999999999 7.4999830000000003 -6.3601999999999999
v 2.1339199999999998 7.4999830000000003 -5.9941209999999998
v 1.2501249999999999 7.4999830000000003 -6.3601999999999999
v 1.2501249999999999 7.4999909999999996 -5.1103249999999996
v 2.5 7.4999830000000003 -5.1103249999999996
#end vertices

#begin 58 textures vertices 
vt 0.05414699848513755 0.50225617611871309 0
vt 0.054146998707164606 0.80014226709211944 0
vt 0.68439511772241557 0.45490044092105408 0
vt 0.98228125000000044 0.45490020816859217 0
vt 0.55576209682188915 0.45490051998594699 0
vt 0.62863316083910237 0.45490047470731748 0
vt 0.12701806847838032 0.80014226720340176 0
vt 0.65651413586897056 0.4549004581554833 0
vt 0.20211411786163835 0.45490083156199806 0
vt 0.50000016574421535 0.45490055457430667 0
vt 0.12701806818435979 0.50225617619519691 0
vt 0.52788112912680574 0.45490053682304038 0
vt 0.073481093316690921 0.4549009508810003 0
vt 0.045600132239752136 0.45490097829816073 0
vt 0.14635215907363353 0.45490088144585117 0
vt 0.17423311917282838 0.45490085616076548 0
vt 0.65651389201548183 0.017718960417699905 0
vt 0.68439485605474137 0.017719053634045561 0
vt 0.62863292115261138 0.017718877124524406 0
vt 0.52788086748694463 0.017718845724282142 0
vt 0.55576184568469755 0.017718896924069472 0
vt 0.4999998849766828 0.017718800716488237 0
vt 0.017718750000000449 0.017719335519766503 0
vt 0.21805136586050705 0.50225602288769655 0
vt 0.21805136471756029 0.80014211343822939 0
vt 0.29092243546264862 0.50225602186320872 0
vt 0.29092243459397599 0.80014211375166699 0
vt 0.20211375090611375 0.017719169155109044 0
vt 0.045599750124239814 0.017719306867462144 0
vt 0.073480712633218023 0.01771927821964266 0
vt 0.14635178636138427 0.017719200601215152 0
vt 0.17423274984811646 0.017719183642507758 0
vt 0.31668109386224796 0.82590080156783474 0
vt 0.32735068314893112 0.80014211350044029 0
vt 0.29092243500466786 0.83657036204885327 0
vt 0.21805136525144067 0.83657036157524145 0
vt 0.19229270671022441 0.82590080188926307 0
vt 0.1816231159095506 0.80014211162973026 0
vt 0.32735068389039829 0.50225602136976988 0
vt 0.21805136468951936 0.46582777447484242 0
vt 0.29092243448158772 0.46582777321637842 0
vt 0.18162311760744146 0.5022560232646921 0
vt 0.31668109376746256 0.47649736240245427 0
vt 0.19229270613722374 0.47649736452700026 0
vt 0.054146998496404933 0.46582792762574715 0
vt 0.1270180681562541 0.46582792768784792 0
vt 0.16344631666610127 0.50225617599708616 0
vt 0.15277672708128381 0.47649748797856489 0
vt 0.028388339514383049 0.47649748799772779 0
vt 0.017718750000000449 0.50225617611910622 0
vt 0.15277672752596527 0.82590092606026211 0
vt 0.16344631697673362 0.80014226697937929 0
vt 0.1270180683974127 0.83657051571829544 0
vt 0.028388339515099583 0.82590092587571218 0
vt 0.054146998437450987 0.83657051559460704 0
vt 0.017718750207528482 0.80014226700484059 0
vt 0.017719132617197101 0.45490100632359043 0
vt 0.98228090573041527 0.017718749999998843 0
#end 58 textures vertices 

#begin 64 normals 
vn -3.0000000000000001e-006 -1 -9.9999999999999995e-007
vn -3.0000000000000001e-006 -1 9.9999999999999995e-007
vn -1.0000000000000001e-005 -1 9.9999999999999995e-007
vn -1.0000000000000001e-005 -1 -9.9999999999999995e-007
vn 1.9999999999999999e-006 -1 1.0000000000000001e-005
vn -1.9999999999999999e-006 -1 1.0000000000000001e-005
vn 3.0000000000000001e-006 -1 9.9999999999999995e-007
vn 1.0000000000000001e-005 -1 -9.9999999999999995e-007
vn 1.0000000000000001e-005 -1 9.9999999999999995e-007
vn 3.0000000000000001e-006 -1 -9.9999999999999995e-007
vn -1.9999999999999999e-006 -1 -1.0000000000000001e-005
vn 1.9999999999999999e-006 -1 -1.0000000000000001e-005
vn -7.9999999999999996e-006 -1 9.0000000000000002e-006
vn 7.9999999999999996e-006 -1 9.0000000000000002e-006
vn -7.9999999999999996e-006 -1 -9.0000000000000002e-006
vn 7.9999999999999996e-006 -1 -9.0000000000000002e-006
vn -6.0000000000000002e-006 1 -0
vn -6.0000000000000002e-006 1 0
vn -1.9999999999999999e-006 1 0
vn -1.9999999999999999e-006 1 -0
vn 1.9999999999999999e-006 1 0
vn -9.9999999999999995e-007 1 3.9999999999999998e-006
vn 9.9999999999999995e-007 1 3.9999999999999998e-006
vn 1.9999999999999999e-006 1 -0
vn 6.0000000000000002e-006 1 0
vn 6.0000000000000002e-006 1 -0
vn 9.9999999999999995e-007 1 -3.9999999999999998e-006
vn -9.9999999999999995e-007 1 -3.9999999999999998e-006
vn -3.9999999999999998e-006 1 1.9999999999999999e-006
vn 3.9999999999999998e-006 1 1.9999999999999999e-006
vn -3.9999999999999998e-006 1 -1.9999999999999999e-006
vn 3.9999999999999998e-006 1 -3.0000000000000001e-006
vn -0.99945700000000004 0 -0.032948999999999999
vn -0.99945700000000004 0 0.032948999999999999
vn -0.99945700000000004 0 0.032948999999999999
vn -0.99945700000000004 0 -0.032948999999999999
vn -0.92388000000000003 0 0.382683
vn -0.92388000000000003 0 0.382683
vn -0.382683 0 0.92388000000000003
vn -0.10755099999999999 0 0.99419999999999997
vn -0.10755099999999999 0 0.99419999999999997
vn -0.382683 0 0.92388000000000003
vn 0.10755099999999999 0 0.99419999999999997
vn 0.10755099999999999 0 0.99419999999999997
vn 0.382683 0 0.92388000000000003
vn 0.382683 0 0.92388000000000003
vn 0.92388000000000003 0 0.382683
vn 0.99945700000000004 0 0.032948999999999999
vn 0.99945700000000004 0 0.032948999999999999
vn 0.92388000000000003 0 0.382683
vn 0.99945700000000004 0 -0.032948999999999999
vn 0.99945700000000004 0 -0.032948999999999999
vn 0.92388000000000003 0 -0.382683
vn 0.92388000000000003 0 -0.382683
vn 0.38268200000000002 0 -0.92388000000000003
vn 0.10755000000000001 0 -0.99419999999999997
vn 0.10755000000000001 0 -0.99419999999999997
vn 0.38268200000000002 0 -0.92388000000000003
vn -0.10755000000000001 0 -0.99419999999999997
vn -0.10755000000000001 0 -0.99419999999999997
vn -0.38268200000000002 0 -0.92388000000000003
vn -0.38268200000000002 0 -0.92388000000000003
vn -0.92388000000000003 0 -0.382683
vn -0.92388000000000003 0 -0.382683
#end 64 normals 

#begin 30 faces
g polySurface26
s 1
f 12/1/1 1/2/2 4/56/3 9/50/4 
f 7/53/5 2/55/6 1/2/2 8/7/7 
f 16/47/8 5/52/9 8/7/7 13/11/10 
f 13/11/10 12/1/1 11/45/11 14/46/12 
f 12/1/1 13/11/10 8/7/7 1/2/2 
f 3/54/13 4/56/3 1/2/2 2/55/6 
f 7/53/5 8/7/7 5/52/9 6/51/14 
f 11/45/11 12/1/1 9/50/4 10/49/15 
f 15/48/16 16/47/8 13/11/10 14/46/12 
s 2
f 26/38/17 17/42/18 20/24/19 27/25/20 
f 21/26/21 20/24/19 19/40/22 22/41/23 
f 31/27/24 21/26/21 24/39/25 32/34/26 
f 30/35/27 28/36/28 27/25/20 31/27/24 
f 20/24/19 21/26/21 31/27/24 27/25/20 
f 19/40/22 20/24/19 17/42/18 18/44/29 
f 23/43/30 24/39/25 21/26/21 22/41/23 
f 25/37/31 26/38/17 27/25/20 28/36/28 
f 29/33/32 30/35/27 31/27/24 32/34/26 
s 3
f 9/4/33 4/3/34 17/18/35 26/58/36 
f 4/3/34 3/8/37 18/17/38 17/18/35 
s 4
f 3/8/39 2/6/40 19/19/41 18/17/42 
f 2/6/40 7/5/43 22/21/44 19/19/41 
f 7/5/43 6/12/45 23/20/46 22/21/44 
s 5
f 6/12/47 5/10/48 24/22/49 23/20/50 
f 5/10/48 16/9/51 32/28/52 24/22/49 
f 16/9/51 15/16/53 29/32/54 32/28/52 
s 6
f 15/16/55 14/15/56 30/31/57 29/32/58 
f 14/15/56 11/13/59 28/30/60 30/31/57 
f 11/13/59 10/14/61 25/29/62 28/30/60 
s 3
f 10/14/63 9/57/33 26/23/36 25/29/64 
#end 30 faces
#begin 1 properties
#U3D SYM 0 0 0 1 0 0 0.0001 0
#end 1 properties
