# This file uses centimeters as units for non-parametric coordinates.

v 0.866025 -0.500000 -7.398718
v 0.965927 0.258819 -7.398719
v 0.500000 0.866025 -7.398718
v -0.258819 0.965926 -7.398719
v -0.866025 0.500000 -7.398718
v -0.965925 -0.258819 -7.398719
v -0.500000 -0.866025 -7.398718
v 0.258819 -0.965926 -7.398719
v 0.866026 -0.500000 8.393082
v 0.965927 0.258819 8.393082
v 0.500001 0.866026 8.393082
v -0.258818 0.965926 8.393082
v -0.866023 0.500000 8.393080
v -0.965926 -0.258819 8.393082
v -0.499998 -0.866025 8.393080
v 0.258820 -0.965925 8.393082
v 0.000000 0.000000 10.556465
v 0.866026 -0.500000 -6.938668
v 0.965925 0.258819 -6.938667
v 0.500001 0.866026 -6.938668
v -0.258820 0.965926 -6.938666
v -0.866023 0.500000 -6.938667
v -0.965925 -0.258819 -6.938666
v -0.499998 -0.866025 -6.938667
v 0.258818 -0.965926 -6.938666
v 0.866026 -0.500000 8.134632
v 0.258820 -0.965926 8.134634
v -0.499998 -0.866025 8.134632
v -0.965924 -0.258819 8.134634
v -0.866023 0.500000 8.134632
v -0.258819 0.965926 8.134634
v 0.500001 0.866026 8.134632
v 0.965927 0.258819 8.134634
v 0.649687 -0.375097 -7.398718
v 0.724630 0.194164 -7.398718
v 0.000000 0.000000 -7.398719
v 0.375097 0.649687 -7.398718
v -0.194164 0.724632 -7.398719
v -0.649688 0.375096 -7.398720
v -0.724631 -0.194164 -7.398718
v -0.375098 -0.649687 -7.398720
v 0.194164 -0.724631 -7.398719
v -0.129409 -0.482963 4.578977
v 1.145672 -0.824619 3.887378
v 0.000000 0.000000 9.016003
v 2.158062 -0.578251 6.241853
v 0.129410 0.482963 4.578977
v 1.404490 0.141307 3.887378
v 3.812069 -0.503802 -1.192035
v 3.553249 -1.469728 -1.192036
v 4.565642 -1.223359 1.162442
v -0.353553 0.353554 4.578977
v -1.286977 -0.579870 3.887377
v 0.000000 0.000000 9.016003
v -1.579811 -1.579811 6.241855
v 0.353554 -0.353553 4.578977
v -0.579869 -1.286976 3.887377
v -2.342339 -3.049447 -1.192036
v -3.049447 -2.342340 -1.192036
v -3.342281 -3.342281 1.162441
v 0.482964 0.129410 4.578977
v 0.141307 1.404490 3.887378
v 0.000000 0.000000 9.016003
v -0.578250 2.158062 6.241855
v -0.482962 -0.129409 4.578978
v -0.824619 1.145671 3.887379
v -1.469728 3.553249 -1.192036
v -0.503802 3.812068 -1.192035
v -1.223360 4.565641 1.162441
vt 0.610485 0.045765
vt 0.500000 0.000000
vt 0.389515 0.045765
vt 0.343750 0.156250
vt 0.389515 0.266735
vt 0.500000 0.312500
vt 0.610485 0.266735
vt 0.656250 0.156250
vt 0.375000 0.312500
vt 0.406250 0.312500
vt 0.437500 0.312500
vt 0.468750 0.312500
vt 0.500000 0.312500
vt 0.531250 0.312500
vt 0.562500 0.312500
vt 0.593750 0.312500
vt 0.625000 0.312500
vt 0.375000 0.688440
vt 0.406250 0.688440
vt 0.437500 0.688440
vt 0.468750 0.688440
vt 0.500000 0.688440
vt 0.531250 0.688440
vt 0.562500 0.688440
vt 0.593750 0.688440
vt 0.625000 0.688440
vt 0.610485 0.733265
vt 0.500000 0.687500
vt 0.389515 0.733265
vt 0.343750 0.843750
vt 0.389515 0.954235
vt 0.500000 1.000000
vt 0.610485 0.954235
vt 0.656250 0.843750
vt 0.500000 0.150000
vt 0.500000 0.837500
vt 0.625000 0.323452
vt 0.375000 0.323452
vt 0.406250 0.323452
vt 0.437500 0.323452
vt 0.468750 0.323452
vt 0.500000 0.323452
vt 0.531250 0.323452
vt 0.562500 0.323452
vt 0.593750 0.323452
vt 0.625000 0.682287
vt 0.375000 0.682287
vt 0.593750 0.682287
vt 0.562500 0.682287
vt 0.531250 0.682287
vt 0.500000 0.682287
vt 0.468750 0.682287
vt 0.437500 0.682287
vt 0.406250 0.682287
vt 0.500000 0.000000
vt 0.610485 0.045765
vt 0.389515 0.045765
vt 0.343750 0.156250
vt 0.389515 0.266735
vt 0.500000 0.312500
vt 0.610485 0.266735
vt 0.656250 0.156250
vt 0.375000 0.000000
vt 0.625000 0.000000
vt 0.670916 0.324228
vt 0.375000 0.375000
vt 0.625000 0.750000
vt 0.375000 0.750000
vt 0.625000 1.000000
vt 0.375000 1.000000
vt 0.625000 0.000000
vt 0.878321 -0.003128
vt 0.734189 0.264798
vt 0.875000 0.000000
vt 0.375000 0.000000
vt 0.625000 0.000000
vt 0.670916 0.324228
vt 0.375000 0.375000
vt 0.625000 0.750000
vt 0.375000 0.750000
vt 0.625000 1.000000
vt 0.375000 1.000000
vt 0.625000 0.000000
vt 0.878321 -0.003128
vt 0.734189 0.264798
vt 0.875000 0.000000
vt 0.375000 0.000000
vt 0.625000 0.000000
vt 0.670916 0.324228
vt 0.375000 0.375000
vt 0.625000 0.750000
vt 0.375000 0.750000
vt 0.625000 1.000000
vt 0.375000 1.000000
vt 0.625000 0.000000
vt 0.878321 -0.003128
vt 0.734189 0.264798
vt 0.875000 0.000000
vn 0.866026 -0.500000 -0.000000
vn 0.965926 0.258819 -0.000000
vn 0.965926 0.258819 -0.000000
vn 0.866025 -0.500000 -0.000000
vn 0.500000 0.866026 -0.000000
vn 0.500000 0.866026 -0.000000
vn -0.258819 0.965926 0.000000
vn -0.258819 0.965926 0.000000
vn -0.866026 0.499999 0.000000
vn -0.866026 0.499999 -0.000000
vn -0.965926 -0.258819 0.000000
vn -0.965926 -0.258819 -0.000000
vn -0.500001 -0.866025 0.000000
vn -0.500001 -0.866025 -0.000000
vn 0.258819 -0.965926 0.000000
vn 0.258819 -0.965926 0.000000
vn -0.000000 -0.000000 -1.000000
vn -0.000000 0.000000 -1.000000
vn 0.000001 0.000000 -1.000000
vn 0.000001 0.000000 -1.000000
vn 0.000000 0.000001 -1.000000
vn -0.000001 0.000000 -1.000000
vn -0.000002 -0.000001 -1.000000
vn -0.000001 -0.000001 -1.000000
vn 0.000001 -0.000001 -1.000000
vn 0.813517 -0.469684 0.342908
vn 0.907361 0.243126 0.342908
vn -0.000001 0.000000 1.000000
vn 0.469684 0.813518 0.342908
vn -0.243127 0.907361 0.342908
vn -0.813517 0.469685 0.342907
vn -0.907361 -0.243126 0.342908
vn -0.469684 -0.813518 0.342907
vn 0.243127 -0.907361 0.342908
vn 0.815769 -0.470985 -0.335700
vn 0.909872 0.243799 -0.335700
vn 0.470984 0.815769 -0.335700
vn -0.243799 0.909872 -0.335699
vn -0.815771 0.470984 -0.335697
vn -0.909874 -0.243800 -0.335696
vn -0.470986 -0.815769 -0.335697
vn 0.243800 -0.909872 -0.335699
vn -0.134028 -0.982668 0.128061
vn -0.056206 -0.991356 0.118548
vn -0.091617 -0.988173 0.122963
vn -0.134028 -0.982668 0.128061
vn 0.375262 0.918030 0.128061
vn 0.414744 0.901592 0.122963
vn 0.447003 0.886643 0.118549
vn 0.375262 0.918030 0.128061
vn -0.805933 0.215949 -0.551215
vn -0.448267 0.120113 -0.885793
vn -0.448267 0.120113 -0.885793
vn -0.805933 0.215949 -0.551215
vn 0.900441 -0.241273 -0.361931
vn 0.900441 -0.241273 -0.361931
vn 0.900441 -0.241273 -0.361931
vn -0.867149 0.232352 -0.440528
vn -0.867149 0.232352 -0.440528
vn 0.475281 0.872354 0.114484
vn 0.475281 0.872354 0.114484
vn -0.024572 -0.993121 0.114484
vn -0.024572 -0.993121 0.114484
vn -0.784002 0.607406 0.128061
vn -0.830437 0.544354 0.118549
vn -0.809974 0.573430 0.122963
vn -0.784001 0.607406 0.128061
vn 0.607406 -0.784001 0.128061
vn 0.573430 -0.809974 0.122963
vn 0.544354 -0.830437 0.118549
vn 0.607406 -0.784002 0.128061
vn 0.589984 0.589984 -0.551215
vn 0.328154 0.328155 -0.885793
vn 0.328154 0.328155 -0.885793
vn 0.589984 0.589984 -0.551215
vn -0.659168 -0.659169 -0.361931
vn -0.659168 -0.659169 -0.361931
vn -0.659168 -0.659169 -0.361931
vn 0.634797 0.634798 -0.440528
vn 0.634797 0.634798 -0.440528
vn 0.517841 -0.847782 0.114484
vn 0.517841 -0.847782 0.114484
vn -0.847782 0.517840 0.114484
vn -0.847782 0.517841 0.114484
vn 0.918030 0.375262 0.128061
vn 0.886643 0.447003 0.118549
vn 0.901592 0.414743 0.122963
vn 0.918030 0.375262 0.128061
vn -0.982668 -0.134028 0.128061
vn -0.988173 -0.091617 0.122963
vn -0.991356 -0.056206 0.118549
vn -0.982668 -0.134028 0.128061
vn 0.215949 -0.805933 -0.551215
vn 0.120112 -0.448267 -0.885793
vn 0.120112 -0.448267 -0.885793
vn 0.215949 -0.805933 -0.551215
vn -0.241272 0.900441 -0.361931
vn -0.241272 0.900441 -0.361931
vn -0.241272 0.900441 -0.361931
vn 0.232352 -0.867149 -0.440528
vn 0.232352 -0.867149 -0.440528
vn -0.993121 -0.024572 0.114484
vn -0.993121 -0.024572 0.114484
vn 0.872354 0.475281 0.114484
vn 0.872354 0.475281 0.114484
s 1
f 18/38/1 19/39/2 33/54/3 26/47/4
f 19/39/2 20/40/5 32/53/6 33/54/3
f 20/40/5 21/41/7 31/52/8 32/53/6
f 21/41/7 22/42/9 30/51/10 31/52/8
f 22/42/9 23/43/11 29/50/12 30/51/10
f 23/43/11 24/44/13 28/49/14 29/50/12
f 24/44/13 25/45/15 27/48/16 28/49/14
f 25/45/15 18/37/1 26/46/4 27/48/16
f 35/55/17 34/56/18 36/35/19
f 37/57/20 35/55/17 36/35/19
f 38/58/21 37/57/20 36/35/19
f 39/59/22 38/58/21 36/35/19
f 40/60/23 39/59/22 36/35/19
f 41/61/24 40/60/23 36/35/19
f 42/62/25 41/61/24 36/35/19
f 34/56/18 42/62/25 36/35/19
f 9/33/26 10/32/27 17/36/28
f 10/32/27 11/31/29 17/36/28
f 11/31/29 12/30/30 17/36/28
f 12/30/30 13/29/31 17/36/28
f 13/29/31 14/28/32 17/36/28
f 14/28/32 15/27/33 17/36/28
f 15/27/33 16/34/34 17/36/28
f 16/34/34 9/33/26 17/36/28
f 1/9/35 2/10/36 19/39/2 18/38/1
f 2/10/36 3/11/37 20/40/5 19/39/2
f 3/11/37 4/12/38 21/41/7 20/40/5
f 4/12/38 5/13/39 22/42/9 21/41/7
f 5/13/39 6/14/40 23/43/11 22/42/9
f 6/14/40 7/15/41 24/44/13 23/43/11
f 7/15/41 8/16/42 25/45/15 24/44/13
f 8/16/42 1/17/35 18/37/1 25/45/15
f 27/48/16 26/46/4 9/26/26 16/25/34
f 28/49/14 27/48/16 16/25/34 15/24/33
f 29/50/12 28/49/14 15/24/33 14/23/32
f 30/51/10 29/50/12 14/23/32 13/22/31
f 31/52/8 30/51/10 13/22/31 12/21/30
f 32/53/6 31/52/8 12/21/30 11/20/29
f 33/54/3 32/53/6 11/20/29 10/19/27
f 26/47/4 33/54/3 10/19/27 9/18/26
f 2/2/36 1/1/35 34/56/18 35/55/17
f 3/3/37 2/2/36 35/55/17 37/57/20
f 4/4/38 3/3/37 37/57/20 38/58/21
f 5/5/39 4/4/38 38/58/21 39/59/22
f 6/6/40 5/5/39 39/59/22 40/60/23
f 7/7/41 6/6/40 40/60/23 41/61/24
f 8/8/42 7/7/41 41/61/24 42/62/25
f 1/1/35 8/8/42 42/62/25 34/56/18
s 3
f 43/63/43 44/64/44 46/65/45 45/66/46
s 4
f 45/66/47 46/65/48 48/67/49 47/68/50
s 5
f 44/69/51 43/70/52 47/68/53 48/67/54
s off
f 50/71/55 49/72/56 51/73/57
s 5
f 49/72/58 50/71/59 44/64/51 48/74/54
s 4
f 48/74/49 46/65/48 51/73/60 49/72/61
s 3
f 46/65/45 44/64/44 50/71/62 51/73/63
s 6
f 52/75/64 53/76/65 55/77/66 54/78/67
s 7
f 54/78/68 55/77/69 57/79/70 56/80/71
s 8
f 53/81/72 52/82/73 56/80/74 57/79/75
s off
f 59/83/76 58/84/77 60/85/78
s 8
f 58/84/79 59/83/80 53/76/72 57/86/75
s 7
f 57/86/70 55/77/69 60/85/81 58/84/82
s 6
f 55/77/66 53/76/65 59/83/83 60/85/84
s 9
f 61/87/85 62/88/86 64/89/87 63/90/88
s 10
f 63/90/89 64/89/90 66/91/91 65/92/92
s 11
f 62/93/93 61/94/94 65/92/95 66/91/96
s off
f 68/95/97 67/96/98 69/97/99
s 11
f 67/96/100 68/95/101 62/88/93 66/98/96
s 10
f 66/98/91 64/89/90 69/97/102 67/96/103
s 9
f 64/89/87 62/88/86 68/95/104 69/97/105
